%TF.GenerationSoftware,KiCad,Pcbnew,8.0.6*%
%TF.CreationDate,2025-02-01T10:00:51+01:00*%
%TF.ProjectId,Optoisolatore_K40_1.0,4f70746f-6973-46f6-9c61-746f72655f4b,rev?*%
%TF.SameCoordinates,Original*%
%TF.FileFunction,Drillmap*%
%TF.FilePolarity,Positive*%
%FSLAX45Y45*%
G04 Gerber Fmt 4.5, Leading zero omitted, Abs format (unit mm)*
G04 Created by KiCad (PCBNEW 8.0.6) date 2025-02-01 10:00:51*
%MOMM*%
%LPD*%
G01*
G04 APERTURE LIST*
%ADD10C,0.050000*%
%ADD11C,0.200000*%
%ADD12C,0.100000*%
G04 APERTURE END LIST*
D10*
X11430000Y-7366000D02*
X17018000Y-7366000D01*
X17018000Y-9906000D01*
X11430000Y-9906000D01*
X11430000Y-7366000D01*
X11844000Y-7620000D02*
G75*
G02*
X11524000Y-7620000I-160000J0D01*
G01*
X11524000Y-7620000D02*
G75*
G02*
X11844000Y-7620000I160000J0D01*
G01*
X16924000Y-7620000D02*
G75*
G02*
X16604000Y-7620000I-160000J0D01*
G01*
X16604000Y-7620000D02*
G75*
G02*
X16924000Y-7620000I160000J0D01*
G01*
X11844000Y-9652000D02*
G75*
G02*
X11524000Y-9652000I-160000J0D01*
G01*
X11524000Y-9652000D02*
G75*
G02*
X11844000Y-9652000I160000J0D01*
G01*
D11*
D12*
X15329500Y-8598500D02*
X15404500Y-8673500D01*
X15404500Y-8598500D02*
X15329500Y-8673500D01*
X15329500Y-8852500D02*
X15404500Y-8927500D01*
X15404500Y-8852500D02*
X15329500Y-8927500D01*
X15456500Y-8725500D02*
X15531500Y-8800500D01*
X15531500Y-8725500D02*
X15456500Y-8800500D01*
X12740000Y-7620000D02*
G75*
G02*
X12660000Y-7620000I-40000J0D01*
G01*
X12660000Y-7620000D02*
G75*
G02*
X12740000Y-7620000I40000J0D01*
G01*
X12740000Y-8890000D02*
G75*
G02*
X12660000Y-8890000I-40000J0D01*
G01*
X12660000Y-8890000D02*
G75*
G02*
X12740000Y-8890000I40000J0D01*
G01*
X13756000Y-7620000D02*
G75*
G02*
X13676000Y-7620000I-40000J0D01*
G01*
X13676000Y-7620000D02*
G75*
G02*
X13756000Y-7620000I40000J0D01*
G01*
X13756000Y-8890000D02*
G75*
G02*
X13676000Y-8890000I-40000J0D01*
G01*
X13676000Y-8890000D02*
G75*
G02*
X13756000Y-8890000I40000J0D01*
G01*
X14048000Y-7695000D02*
G75*
G02*
X13968000Y-7695000I-40000J0D01*
G01*
X13968000Y-7695000D02*
G75*
G02*
X14048000Y-7695000I40000J0D01*
G01*
X14048000Y-7949000D02*
G75*
G02*
X13968000Y-7949000I-40000J0D01*
G01*
X13968000Y-7949000D02*
G75*
G02*
X14048000Y-7949000I40000J0D01*
G01*
X14048000Y-8203000D02*
G75*
G02*
X13968000Y-8203000I-40000J0D01*
G01*
X13968000Y-8203000D02*
G75*
G02*
X14048000Y-8203000I40000J0D01*
G01*
X14048000Y-8891500D02*
G75*
G02*
X13968000Y-8891500I-40000J0D01*
G01*
X13968000Y-8891500D02*
G75*
G02*
X14048000Y-8891500I40000J0D01*
G01*
X14048000Y-9145500D02*
G75*
G02*
X13968000Y-9145500I-40000J0D01*
G01*
X13968000Y-9145500D02*
G75*
G02*
X14048000Y-9145500I40000J0D01*
G01*
X14048000Y-9399500D02*
G75*
G02*
X13968000Y-9399500I-40000J0D01*
G01*
X13968000Y-9399500D02*
G75*
G02*
X14048000Y-9399500I40000J0D01*
G01*
X14810000Y-7695000D02*
G75*
G02*
X14730000Y-7695000I-40000J0D01*
G01*
X14730000Y-7695000D02*
G75*
G02*
X14810000Y-7695000I40000J0D01*
G01*
X14810000Y-7949000D02*
G75*
G02*
X14730000Y-7949000I-40000J0D01*
G01*
X14730000Y-7949000D02*
G75*
G02*
X14810000Y-7949000I40000J0D01*
G01*
X14810000Y-8203000D02*
G75*
G02*
X14730000Y-8203000I-40000J0D01*
G01*
X14730000Y-8203000D02*
G75*
G02*
X14810000Y-8203000I40000J0D01*
G01*
X14810000Y-8891500D02*
G75*
G02*
X14730000Y-8891500I-40000J0D01*
G01*
X14730000Y-8891500D02*
G75*
G02*
X14810000Y-8891500I40000J0D01*
G01*
X14810000Y-9145500D02*
G75*
G02*
X14730000Y-9145500I-40000J0D01*
G01*
X14730000Y-9145500D02*
G75*
G02*
X14810000Y-9145500I40000J0D01*
G01*
X14810000Y-9399500D02*
G75*
G02*
X14730000Y-9399500I-40000J0D01*
G01*
X14730000Y-9399500D02*
G75*
G02*
X14810000Y-9399500I40000J0D01*
G01*
X15280000Y-7620000D02*
G75*
G02*
X15200000Y-7620000I-40000J0D01*
G01*
X15200000Y-7620000D02*
G75*
G02*
X15280000Y-7620000I40000J0D01*
G01*
X15280000Y-8128000D02*
G75*
G02*
X15200000Y-8128000I-40000J0D01*
G01*
X15200000Y-8128000D02*
G75*
G02*
X15280000Y-8128000I40000J0D01*
G01*
X16296000Y-7620000D02*
G75*
G02*
X16216000Y-7620000I-40000J0D01*
G01*
X16216000Y-7620000D02*
G75*
G02*
X16296000Y-7620000I40000J0D01*
G01*
X16296000Y-8128000D02*
G75*
G02*
X16216000Y-8128000I-40000J0D01*
G01*
X16216000Y-8128000D02*
G75*
G02*
X16296000Y-8128000I40000J0D01*
G01*
X12192000Y-8332000D02*
X12192000Y-8432000D01*
X12142000Y-8382000D02*
X12242000Y-8382000D01*
X12192000Y-8586000D02*
X12192000Y-8686000D01*
X12142000Y-8636000D02*
X12242000Y-8636000D01*
X12192000Y-8840000D02*
X12192000Y-8940000D01*
X12142000Y-8890000D02*
X12242000Y-8890000D01*
X12192000Y-9094000D02*
X12192000Y-9194000D01*
X12142000Y-9144000D02*
X12242000Y-9144000D01*
X16256000Y-8586000D02*
X16256000Y-8686000D01*
X16206000Y-8636000D02*
X16306000Y-8636000D01*
X16256000Y-8840000D02*
X16256000Y-8940000D01*
X16206000Y-8890000D02*
X16306000Y-8890000D01*
X16256000Y-9094000D02*
X16256000Y-9194000D01*
X16206000Y-9144000D02*
X16306000Y-9144000D01*
X16256000Y-9348000D02*
X16256000Y-9448000D01*
X16206000Y-9398000D02*
X16306000Y-9398000D01*
D11*
X11688277Y-10219984D02*
X11688277Y-10019984D01*
X11688277Y-10019984D02*
X11735896Y-10019984D01*
X11735896Y-10019984D02*
X11764467Y-10029508D01*
X11764467Y-10029508D02*
X11783515Y-10048555D01*
X11783515Y-10048555D02*
X11793039Y-10067603D01*
X11793039Y-10067603D02*
X11802562Y-10105698D01*
X11802562Y-10105698D02*
X11802562Y-10134270D01*
X11802562Y-10134270D02*
X11793039Y-10172365D01*
X11793039Y-10172365D02*
X11783515Y-10191412D01*
X11783515Y-10191412D02*
X11764467Y-10210460D01*
X11764467Y-10210460D02*
X11735896Y-10219984D01*
X11735896Y-10219984D02*
X11688277Y-10219984D01*
X11888277Y-10219984D02*
X11888277Y-10086650D01*
X11888277Y-10124746D02*
X11897801Y-10105698D01*
X11897801Y-10105698D02*
X11907324Y-10096174D01*
X11907324Y-10096174D02*
X11926372Y-10086650D01*
X11926372Y-10086650D02*
X11945420Y-10086650D01*
X12012086Y-10219984D02*
X12012086Y-10086650D01*
X12012086Y-10019984D02*
X12002562Y-10029508D01*
X12002562Y-10029508D02*
X12012086Y-10039031D01*
X12012086Y-10039031D02*
X12021610Y-10029508D01*
X12021610Y-10029508D02*
X12012086Y-10019984D01*
X12012086Y-10019984D02*
X12012086Y-10039031D01*
X12135896Y-10219984D02*
X12116848Y-10210460D01*
X12116848Y-10210460D02*
X12107324Y-10191412D01*
X12107324Y-10191412D02*
X12107324Y-10019984D01*
X12240658Y-10219984D02*
X12221610Y-10210460D01*
X12221610Y-10210460D02*
X12212086Y-10191412D01*
X12212086Y-10191412D02*
X12212086Y-10019984D01*
X12469229Y-10219984D02*
X12469229Y-10019984D01*
X12469229Y-10019984D02*
X12535896Y-10162841D01*
X12535896Y-10162841D02*
X12602562Y-10019984D01*
X12602562Y-10019984D02*
X12602562Y-10219984D01*
X12783515Y-10219984D02*
X12783515Y-10115222D01*
X12783515Y-10115222D02*
X12773991Y-10096174D01*
X12773991Y-10096174D02*
X12754943Y-10086650D01*
X12754943Y-10086650D02*
X12716848Y-10086650D01*
X12716848Y-10086650D02*
X12697801Y-10096174D01*
X12783515Y-10210460D02*
X12764467Y-10219984D01*
X12764467Y-10219984D02*
X12716848Y-10219984D01*
X12716848Y-10219984D02*
X12697801Y-10210460D01*
X12697801Y-10210460D02*
X12688277Y-10191412D01*
X12688277Y-10191412D02*
X12688277Y-10172365D01*
X12688277Y-10172365D02*
X12697801Y-10153317D01*
X12697801Y-10153317D02*
X12716848Y-10143793D01*
X12716848Y-10143793D02*
X12764467Y-10143793D01*
X12764467Y-10143793D02*
X12783515Y-10134270D01*
X12878753Y-10086650D02*
X12878753Y-10286650D01*
X12878753Y-10096174D02*
X12897801Y-10086650D01*
X12897801Y-10086650D02*
X12935896Y-10086650D01*
X12935896Y-10086650D02*
X12954943Y-10096174D01*
X12954943Y-10096174D02*
X12964467Y-10105698D01*
X12964467Y-10105698D02*
X12973991Y-10124746D01*
X12973991Y-10124746D02*
X12973991Y-10181889D01*
X12973991Y-10181889D02*
X12964467Y-10200936D01*
X12964467Y-10200936D02*
X12954943Y-10210460D01*
X12954943Y-10210460D02*
X12935896Y-10219984D01*
X12935896Y-10219984D02*
X12897801Y-10219984D01*
X12897801Y-10219984D02*
X12878753Y-10210460D01*
X13059705Y-10200936D02*
X13069229Y-10210460D01*
X13069229Y-10210460D02*
X13059705Y-10219984D01*
X13059705Y-10219984D02*
X13050182Y-10210460D01*
X13050182Y-10210460D02*
X13059705Y-10200936D01*
X13059705Y-10200936D02*
X13059705Y-10219984D01*
X13059705Y-10096174D02*
X13069229Y-10105698D01*
X13069229Y-10105698D02*
X13059705Y-10115222D01*
X13059705Y-10115222D02*
X13050182Y-10105698D01*
X13050182Y-10105698D02*
X13059705Y-10096174D01*
X13059705Y-10096174D02*
X13059705Y-10115222D01*
D12*
X11352500Y-10511000D02*
X11427500Y-10586000D01*
X11427500Y-10511000D02*
X11352500Y-10586000D01*
D11*
X11726372Y-10439984D02*
X11745420Y-10439984D01*
X11745420Y-10439984D02*
X11764467Y-10449508D01*
X11764467Y-10449508D02*
X11773991Y-10459031D01*
X11773991Y-10459031D02*
X11783515Y-10478079D01*
X11783515Y-10478079D02*
X11793039Y-10516174D01*
X11793039Y-10516174D02*
X11793039Y-10563793D01*
X11793039Y-10563793D02*
X11783515Y-10601889D01*
X11783515Y-10601889D02*
X11773991Y-10620936D01*
X11773991Y-10620936D02*
X11764467Y-10630460D01*
X11764467Y-10630460D02*
X11745420Y-10639984D01*
X11745420Y-10639984D02*
X11726372Y-10639984D01*
X11726372Y-10639984D02*
X11707324Y-10630460D01*
X11707324Y-10630460D02*
X11697801Y-10620936D01*
X11697801Y-10620936D02*
X11688277Y-10601889D01*
X11688277Y-10601889D02*
X11678753Y-10563793D01*
X11678753Y-10563793D02*
X11678753Y-10516174D01*
X11678753Y-10516174D02*
X11688277Y-10478079D01*
X11688277Y-10478079D02*
X11697801Y-10459031D01*
X11697801Y-10459031D02*
X11707324Y-10449508D01*
X11707324Y-10449508D02*
X11726372Y-10439984D01*
X11878753Y-10620936D02*
X11888277Y-10630460D01*
X11888277Y-10630460D02*
X11878753Y-10639984D01*
X11878753Y-10639984D02*
X11869229Y-10630460D01*
X11869229Y-10630460D02*
X11878753Y-10620936D01*
X11878753Y-10620936D02*
X11878753Y-10639984D01*
X11954943Y-10439984D02*
X12088277Y-10439984D01*
X12088277Y-10439984D02*
X12002562Y-10639984D01*
X12259705Y-10439984D02*
X12164467Y-10439984D01*
X12164467Y-10439984D02*
X12154943Y-10535222D01*
X12154943Y-10535222D02*
X12164467Y-10525698D01*
X12164467Y-10525698D02*
X12183515Y-10516174D01*
X12183515Y-10516174D02*
X12231134Y-10516174D01*
X12231134Y-10516174D02*
X12250182Y-10525698D01*
X12250182Y-10525698D02*
X12259705Y-10535222D01*
X12259705Y-10535222D02*
X12269229Y-10554270D01*
X12269229Y-10554270D02*
X12269229Y-10601889D01*
X12269229Y-10601889D02*
X12259705Y-10620936D01*
X12259705Y-10620936D02*
X12250182Y-10630460D01*
X12250182Y-10630460D02*
X12231134Y-10639984D01*
X12231134Y-10639984D02*
X12183515Y-10639984D01*
X12183515Y-10639984D02*
X12164467Y-10630460D01*
X12164467Y-10630460D02*
X12154943Y-10620936D01*
X12393039Y-10439984D02*
X12412086Y-10439984D01*
X12412086Y-10439984D02*
X12431134Y-10449508D01*
X12431134Y-10449508D02*
X12440658Y-10459031D01*
X12440658Y-10459031D02*
X12450182Y-10478079D01*
X12450182Y-10478079D02*
X12459705Y-10516174D01*
X12459705Y-10516174D02*
X12459705Y-10563793D01*
X12459705Y-10563793D02*
X12450182Y-10601889D01*
X12450182Y-10601889D02*
X12440658Y-10620936D01*
X12440658Y-10620936D02*
X12431134Y-10630460D01*
X12431134Y-10630460D02*
X12412086Y-10639984D01*
X12412086Y-10639984D02*
X12393039Y-10639984D01*
X12393039Y-10639984D02*
X12373991Y-10630460D01*
X12373991Y-10630460D02*
X12364467Y-10620936D01*
X12364467Y-10620936D02*
X12354943Y-10601889D01*
X12354943Y-10601889D02*
X12345420Y-10563793D01*
X12345420Y-10563793D02*
X12345420Y-10516174D01*
X12345420Y-10516174D02*
X12354943Y-10478079D01*
X12354943Y-10478079D02*
X12364467Y-10459031D01*
X12364467Y-10459031D02*
X12373991Y-10449508D01*
X12373991Y-10449508D02*
X12393039Y-10439984D01*
X12545420Y-10639984D02*
X12545420Y-10506650D01*
X12545420Y-10525698D02*
X12554943Y-10516174D01*
X12554943Y-10516174D02*
X12573991Y-10506650D01*
X12573991Y-10506650D02*
X12602563Y-10506650D01*
X12602563Y-10506650D02*
X12621610Y-10516174D01*
X12621610Y-10516174D02*
X12631134Y-10535222D01*
X12631134Y-10535222D02*
X12631134Y-10639984D01*
X12631134Y-10535222D02*
X12640658Y-10516174D01*
X12640658Y-10516174D02*
X12659705Y-10506650D01*
X12659705Y-10506650D02*
X12688277Y-10506650D01*
X12688277Y-10506650D02*
X12707324Y-10516174D01*
X12707324Y-10516174D02*
X12716848Y-10535222D01*
X12716848Y-10535222D02*
X12716848Y-10639984D01*
X12812086Y-10639984D02*
X12812086Y-10506650D01*
X12812086Y-10525698D02*
X12821610Y-10516174D01*
X12821610Y-10516174D02*
X12840658Y-10506650D01*
X12840658Y-10506650D02*
X12869229Y-10506650D01*
X12869229Y-10506650D02*
X12888277Y-10516174D01*
X12888277Y-10516174D02*
X12897801Y-10535222D01*
X12897801Y-10535222D02*
X12897801Y-10639984D01*
X12897801Y-10535222D02*
X12907324Y-10516174D01*
X12907324Y-10516174D02*
X12926372Y-10506650D01*
X12926372Y-10506650D02*
X12954943Y-10506650D01*
X12954943Y-10506650D02*
X12973991Y-10516174D01*
X12973991Y-10516174D02*
X12983515Y-10535222D01*
X12983515Y-10535222D02*
X12983515Y-10639984D01*
X13373991Y-10430460D02*
X13202563Y-10687603D01*
X13631134Y-10439984D02*
X13650182Y-10439984D01*
X13650182Y-10439984D02*
X13669229Y-10449508D01*
X13669229Y-10449508D02*
X13678753Y-10459031D01*
X13678753Y-10459031D02*
X13688277Y-10478079D01*
X13688277Y-10478079D02*
X13697801Y-10516174D01*
X13697801Y-10516174D02*
X13697801Y-10563793D01*
X13697801Y-10563793D02*
X13688277Y-10601889D01*
X13688277Y-10601889D02*
X13678753Y-10620936D01*
X13678753Y-10620936D02*
X13669229Y-10630460D01*
X13669229Y-10630460D02*
X13650182Y-10639984D01*
X13650182Y-10639984D02*
X13631134Y-10639984D01*
X13631134Y-10639984D02*
X13612086Y-10630460D01*
X13612086Y-10630460D02*
X13602563Y-10620936D01*
X13602563Y-10620936D02*
X13593039Y-10601889D01*
X13593039Y-10601889D02*
X13583515Y-10563793D01*
X13583515Y-10563793D02*
X13583515Y-10516174D01*
X13583515Y-10516174D02*
X13593039Y-10478079D01*
X13593039Y-10478079D02*
X13602563Y-10459031D01*
X13602563Y-10459031D02*
X13612086Y-10449508D01*
X13612086Y-10449508D02*
X13631134Y-10439984D01*
X13783515Y-10620936D02*
X13793039Y-10630460D01*
X13793039Y-10630460D02*
X13783515Y-10639984D01*
X13783515Y-10639984D02*
X13773991Y-10630460D01*
X13773991Y-10630460D02*
X13783515Y-10620936D01*
X13783515Y-10620936D02*
X13783515Y-10639984D01*
X13916848Y-10439984D02*
X13935896Y-10439984D01*
X13935896Y-10439984D02*
X13954944Y-10449508D01*
X13954944Y-10449508D02*
X13964467Y-10459031D01*
X13964467Y-10459031D02*
X13973991Y-10478079D01*
X13973991Y-10478079D02*
X13983515Y-10516174D01*
X13983515Y-10516174D02*
X13983515Y-10563793D01*
X13983515Y-10563793D02*
X13973991Y-10601889D01*
X13973991Y-10601889D02*
X13964467Y-10620936D01*
X13964467Y-10620936D02*
X13954944Y-10630460D01*
X13954944Y-10630460D02*
X13935896Y-10639984D01*
X13935896Y-10639984D02*
X13916848Y-10639984D01*
X13916848Y-10639984D02*
X13897801Y-10630460D01*
X13897801Y-10630460D02*
X13888277Y-10620936D01*
X13888277Y-10620936D02*
X13878753Y-10601889D01*
X13878753Y-10601889D02*
X13869229Y-10563793D01*
X13869229Y-10563793D02*
X13869229Y-10516174D01*
X13869229Y-10516174D02*
X13878753Y-10478079D01*
X13878753Y-10478079D02*
X13888277Y-10459031D01*
X13888277Y-10459031D02*
X13897801Y-10449508D01*
X13897801Y-10449508D02*
X13916848Y-10439984D01*
X14059706Y-10459031D02*
X14069229Y-10449508D01*
X14069229Y-10449508D02*
X14088277Y-10439984D01*
X14088277Y-10439984D02*
X14135896Y-10439984D01*
X14135896Y-10439984D02*
X14154944Y-10449508D01*
X14154944Y-10449508D02*
X14164467Y-10459031D01*
X14164467Y-10459031D02*
X14173991Y-10478079D01*
X14173991Y-10478079D02*
X14173991Y-10497127D01*
X14173991Y-10497127D02*
X14164467Y-10525698D01*
X14164467Y-10525698D02*
X14050182Y-10639984D01*
X14050182Y-10639984D02*
X14173991Y-10639984D01*
X14269229Y-10639984D02*
X14307325Y-10639984D01*
X14307325Y-10639984D02*
X14326372Y-10630460D01*
X14326372Y-10630460D02*
X14335896Y-10620936D01*
X14335896Y-10620936D02*
X14354944Y-10592365D01*
X14354944Y-10592365D02*
X14364467Y-10554270D01*
X14364467Y-10554270D02*
X14364467Y-10478079D01*
X14364467Y-10478079D02*
X14354944Y-10459031D01*
X14354944Y-10459031D02*
X14345420Y-10449508D01*
X14345420Y-10449508D02*
X14326372Y-10439984D01*
X14326372Y-10439984D02*
X14288277Y-10439984D01*
X14288277Y-10439984D02*
X14269229Y-10449508D01*
X14269229Y-10449508D02*
X14259706Y-10459031D01*
X14259706Y-10459031D02*
X14250182Y-10478079D01*
X14250182Y-10478079D02*
X14250182Y-10525698D01*
X14250182Y-10525698D02*
X14259706Y-10544746D01*
X14259706Y-10544746D02*
X14269229Y-10554270D01*
X14269229Y-10554270D02*
X14288277Y-10563793D01*
X14288277Y-10563793D02*
X14326372Y-10563793D01*
X14326372Y-10563793D02*
X14345420Y-10554270D01*
X14345420Y-10554270D02*
X14354944Y-10544746D01*
X14354944Y-10544746D02*
X14364467Y-10525698D01*
X14545420Y-10439984D02*
X14450182Y-10439984D01*
X14450182Y-10439984D02*
X14440658Y-10535222D01*
X14440658Y-10535222D02*
X14450182Y-10525698D01*
X14450182Y-10525698D02*
X14469229Y-10516174D01*
X14469229Y-10516174D02*
X14516848Y-10516174D01*
X14516848Y-10516174D02*
X14535896Y-10525698D01*
X14535896Y-10525698D02*
X14545420Y-10535222D01*
X14545420Y-10535222D02*
X14554944Y-10554270D01*
X14554944Y-10554270D02*
X14554944Y-10601889D01*
X14554944Y-10601889D02*
X14545420Y-10620936D01*
X14545420Y-10620936D02*
X14535896Y-10630460D01*
X14535896Y-10630460D02*
X14516848Y-10639984D01*
X14516848Y-10639984D02*
X14469229Y-10639984D01*
X14469229Y-10639984D02*
X14450182Y-10630460D01*
X14450182Y-10630460D02*
X14440658Y-10620936D01*
X14631134Y-10439984D02*
X14631134Y-10478079D01*
X14707325Y-10439984D02*
X14707325Y-10478079D01*
X15002563Y-10716174D02*
X14993039Y-10706650D01*
X14993039Y-10706650D02*
X14973991Y-10678079D01*
X14973991Y-10678079D02*
X14964468Y-10659031D01*
X14964468Y-10659031D02*
X14954944Y-10630460D01*
X14954944Y-10630460D02*
X14945420Y-10582841D01*
X14945420Y-10582841D02*
X14945420Y-10544746D01*
X14945420Y-10544746D02*
X14954944Y-10497127D01*
X14954944Y-10497127D02*
X14964468Y-10468555D01*
X14964468Y-10468555D02*
X14973991Y-10449508D01*
X14973991Y-10449508D02*
X14993039Y-10420936D01*
X14993039Y-10420936D02*
X15002563Y-10411412D01*
X15059706Y-10439984D02*
X15183515Y-10439984D01*
X15183515Y-10439984D02*
X15116848Y-10516174D01*
X15116848Y-10516174D02*
X15145420Y-10516174D01*
X15145420Y-10516174D02*
X15164468Y-10525698D01*
X15164468Y-10525698D02*
X15173991Y-10535222D01*
X15173991Y-10535222D02*
X15183515Y-10554270D01*
X15183515Y-10554270D02*
X15183515Y-10601889D01*
X15183515Y-10601889D02*
X15173991Y-10620936D01*
X15173991Y-10620936D02*
X15164468Y-10630460D01*
X15164468Y-10630460D02*
X15145420Y-10639984D01*
X15145420Y-10639984D02*
X15088277Y-10639984D01*
X15088277Y-10639984D02*
X15069229Y-10630460D01*
X15069229Y-10630460D02*
X15059706Y-10620936D01*
X15421610Y-10639984D02*
X15421610Y-10439984D01*
X15507325Y-10639984D02*
X15507325Y-10535222D01*
X15507325Y-10535222D02*
X15497801Y-10516174D01*
X15497801Y-10516174D02*
X15478753Y-10506650D01*
X15478753Y-10506650D02*
X15450182Y-10506650D01*
X15450182Y-10506650D02*
X15431134Y-10516174D01*
X15431134Y-10516174D02*
X15421610Y-10525698D01*
X15631134Y-10639984D02*
X15612087Y-10630460D01*
X15612087Y-10630460D02*
X15602563Y-10620936D01*
X15602563Y-10620936D02*
X15593039Y-10601889D01*
X15593039Y-10601889D02*
X15593039Y-10544746D01*
X15593039Y-10544746D02*
X15602563Y-10525698D01*
X15602563Y-10525698D02*
X15612087Y-10516174D01*
X15612087Y-10516174D02*
X15631134Y-10506650D01*
X15631134Y-10506650D02*
X15659706Y-10506650D01*
X15659706Y-10506650D02*
X15678753Y-10516174D01*
X15678753Y-10516174D02*
X15688277Y-10525698D01*
X15688277Y-10525698D02*
X15697801Y-10544746D01*
X15697801Y-10544746D02*
X15697801Y-10601889D01*
X15697801Y-10601889D02*
X15688277Y-10620936D01*
X15688277Y-10620936D02*
X15678753Y-10630460D01*
X15678753Y-10630460D02*
X15659706Y-10639984D01*
X15659706Y-10639984D02*
X15631134Y-10639984D01*
X15812087Y-10639984D02*
X15793039Y-10630460D01*
X15793039Y-10630460D02*
X15783515Y-10611412D01*
X15783515Y-10611412D02*
X15783515Y-10439984D01*
X15964468Y-10630460D02*
X15945420Y-10639984D01*
X15945420Y-10639984D02*
X15907325Y-10639984D01*
X15907325Y-10639984D02*
X15888277Y-10630460D01*
X15888277Y-10630460D02*
X15878753Y-10611412D01*
X15878753Y-10611412D02*
X15878753Y-10535222D01*
X15878753Y-10535222D02*
X15888277Y-10516174D01*
X15888277Y-10516174D02*
X15907325Y-10506650D01*
X15907325Y-10506650D02*
X15945420Y-10506650D01*
X15945420Y-10506650D02*
X15964468Y-10516174D01*
X15964468Y-10516174D02*
X15973991Y-10535222D01*
X15973991Y-10535222D02*
X15973991Y-10554270D01*
X15973991Y-10554270D02*
X15878753Y-10573317D01*
X16050182Y-10630460D02*
X16069230Y-10639984D01*
X16069230Y-10639984D02*
X16107325Y-10639984D01*
X16107325Y-10639984D02*
X16126372Y-10630460D01*
X16126372Y-10630460D02*
X16135896Y-10611412D01*
X16135896Y-10611412D02*
X16135896Y-10601889D01*
X16135896Y-10601889D02*
X16126372Y-10582841D01*
X16126372Y-10582841D02*
X16107325Y-10573317D01*
X16107325Y-10573317D02*
X16078753Y-10573317D01*
X16078753Y-10573317D02*
X16059706Y-10563793D01*
X16059706Y-10563793D02*
X16050182Y-10544746D01*
X16050182Y-10544746D02*
X16050182Y-10535222D01*
X16050182Y-10535222D02*
X16059706Y-10516174D01*
X16059706Y-10516174D02*
X16078753Y-10506650D01*
X16078753Y-10506650D02*
X16107325Y-10506650D01*
X16107325Y-10506650D02*
X16126372Y-10516174D01*
X16202563Y-10716174D02*
X16212087Y-10706650D01*
X16212087Y-10706650D02*
X16231134Y-10678079D01*
X16231134Y-10678079D02*
X16240658Y-10659031D01*
X16240658Y-10659031D02*
X16250182Y-10630460D01*
X16250182Y-10630460D02*
X16259706Y-10582841D01*
X16259706Y-10582841D02*
X16259706Y-10544746D01*
X16259706Y-10544746D02*
X16250182Y-10497127D01*
X16250182Y-10497127D02*
X16240658Y-10468555D01*
X16240658Y-10468555D02*
X16231134Y-10449508D01*
X16231134Y-10449508D02*
X16212087Y-10420936D01*
X16212087Y-10420936D02*
X16202563Y-10411412D01*
D12*
X11427500Y-10812500D02*
G75*
G02*
X11347500Y-10812500I-40000J0D01*
G01*
X11347500Y-10812500D02*
G75*
G02*
X11427500Y-10812500I40000J0D01*
G01*
D11*
X11726372Y-10703984D02*
X11745420Y-10703984D01*
X11745420Y-10703984D02*
X11764467Y-10713508D01*
X11764467Y-10713508D02*
X11773991Y-10723031D01*
X11773991Y-10723031D02*
X11783515Y-10742079D01*
X11783515Y-10742079D02*
X11793039Y-10780174D01*
X11793039Y-10780174D02*
X11793039Y-10827793D01*
X11793039Y-10827793D02*
X11783515Y-10865889D01*
X11783515Y-10865889D02*
X11773991Y-10884936D01*
X11773991Y-10884936D02*
X11764467Y-10894460D01*
X11764467Y-10894460D02*
X11745420Y-10903984D01*
X11745420Y-10903984D02*
X11726372Y-10903984D01*
X11726372Y-10903984D02*
X11707324Y-10894460D01*
X11707324Y-10894460D02*
X11697801Y-10884936D01*
X11697801Y-10884936D02*
X11688277Y-10865889D01*
X11688277Y-10865889D02*
X11678753Y-10827793D01*
X11678753Y-10827793D02*
X11678753Y-10780174D01*
X11678753Y-10780174D02*
X11688277Y-10742079D01*
X11688277Y-10742079D02*
X11697801Y-10723031D01*
X11697801Y-10723031D02*
X11707324Y-10713508D01*
X11707324Y-10713508D02*
X11726372Y-10703984D01*
X11878753Y-10884936D02*
X11888277Y-10894460D01*
X11888277Y-10894460D02*
X11878753Y-10903984D01*
X11878753Y-10903984D02*
X11869229Y-10894460D01*
X11869229Y-10894460D02*
X11878753Y-10884936D01*
X11878753Y-10884936D02*
X11878753Y-10903984D01*
X12002562Y-10789698D02*
X11983515Y-10780174D01*
X11983515Y-10780174D02*
X11973991Y-10770650D01*
X11973991Y-10770650D02*
X11964467Y-10751603D01*
X11964467Y-10751603D02*
X11964467Y-10742079D01*
X11964467Y-10742079D02*
X11973991Y-10723031D01*
X11973991Y-10723031D02*
X11983515Y-10713508D01*
X11983515Y-10713508D02*
X12002562Y-10703984D01*
X12002562Y-10703984D02*
X12040658Y-10703984D01*
X12040658Y-10703984D02*
X12059705Y-10713508D01*
X12059705Y-10713508D02*
X12069229Y-10723031D01*
X12069229Y-10723031D02*
X12078753Y-10742079D01*
X12078753Y-10742079D02*
X12078753Y-10751603D01*
X12078753Y-10751603D02*
X12069229Y-10770650D01*
X12069229Y-10770650D02*
X12059705Y-10780174D01*
X12059705Y-10780174D02*
X12040658Y-10789698D01*
X12040658Y-10789698D02*
X12002562Y-10789698D01*
X12002562Y-10789698D02*
X11983515Y-10799222D01*
X11983515Y-10799222D02*
X11973991Y-10808746D01*
X11973991Y-10808746D02*
X11964467Y-10827793D01*
X11964467Y-10827793D02*
X11964467Y-10865889D01*
X11964467Y-10865889D02*
X11973991Y-10884936D01*
X11973991Y-10884936D02*
X11983515Y-10894460D01*
X11983515Y-10894460D02*
X12002562Y-10903984D01*
X12002562Y-10903984D02*
X12040658Y-10903984D01*
X12040658Y-10903984D02*
X12059705Y-10894460D01*
X12059705Y-10894460D02*
X12069229Y-10884936D01*
X12069229Y-10884936D02*
X12078753Y-10865889D01*
X12078753Y-10865889D02*
X12078753Y-10827793D01*
X12078753Y-10827793D02*
X12069229Y-10808746D01*
X12069229Y-10808746D02*
X12059705Y-10799222D01*
X12059705Y-10799222D02*
X12040658Y-10789698D01*
X12202562Y-10703984D02*
X12221610Y-10703984D01*
X12221610Y-10703984D02*
X12240658Y-10713508D01*
X12240658Y-10713508D02*
X12250182Y-10723031D01*
X12250182Y-10723031D02*
X12259705Y-10742079D01*
X12259705Y-10742079D02*
X12269229Y-10780174D01*
X12269229Y-10780174D02*
X12269229Y-10827793D01*
X12269229Y-10827793D02*
X12259705Y-10865889D01*
X12259705Y-10865889D02*
X12250182Y-10884936D01*
X12250182Y-10884936D02*
X12240658Y-10894460D01*
X12240658Y-10894460D02*
X12221610Y-10903984D01*
X12221610Y-10903984D02*
X12202562Y-10903984D01*
X12202562Y-10903984D02*
X12183515Y-10894460D01*
X12183515Y-10894460D02*
X12173991Y-10884936D01*
X12173991Y-10884936D02*
X12164467Y-10865889D01*
X12164467Y-10865889D02*
X12154943Y-10827793D01*
X12154943Y-10827793D02*
X12154943Y-10780174D01*
X12154943Y-10780174D02*
X12164467Y-10742079D01*
X12164467Y-10742079D02*
X12173991Y-10723031D01*
X12173991Y-10723031D02*
X12183515Y-10713508D01*
X12183515Y-10713508D02*
X12202562Y-10703984D01*
X12393039Y-10703984D02*
X12412086Y-10703984D01*
X12412086Y-10703984D02*
X12431134Y-10713508D01*
X12431134Y-10713508D02*
X12440658Y-10723031D01*
X12440658Y-10723031D02*
X12450182Y-10742079D01*
X12450182Y-10742079D02*
X12459705Y-10780174D01*
X12459705Y-10780174D02*
X12459705Y-10827793D01*
X12459705Y-10827793D02*
X12450182Y-10865889D01*
X12450182Y-10865889D02*
X12440658Y-10884936D01*
X12440658Y-10884936D02*
X12431134Y-10894460D01*
X12431134Y-10894460D02*
X12412086Y-10903984D01*
X12412086Y-10903984D02*
X12393039Y-10903984D01*
X12393039Y-10903984D02*
X12373991Y-10894460D01*
X12373991Y-10894460D02*
X12364467Y-10884936D01*
X12364467Y-10884936D02*
X12354943Y-10865889D01*
X12354943Y-10865889D02*
X12345420Y-10827793D01*
X12345420Y-10827793D02*
X12345420Y-10780174D01*
X12345420Y-10780174D02*
X12354943Y-10742079D01*
X12354943Y-10742079D02*
X12364467Y-10723031D01*
X12364467Y-10723031D02*
X12373991Y-10713508D01*
X12373991Y-10713508D02*
X12393039Y-10703984D01*
X12545420Y-10903984D02*
X12545420Y-10770650D01*
X12545420Y-10789698D02*
X12554943Y-10780174D01*
X12554943Y-10780174D02*
X12573991Y-10770650D01*
X12573991Y-10770650D02*
X12602563Y-10770650D01*
X12602563Y-10770650D02*
X12621610Y-10780174D01*
X12621610Y-10780174D02*
X12631134Y-10799222D01*
X12631134Y-10799222D02*
X12631134Y-10903984D01*
X12631134Y-10799222D02*
X12640658Y-10780174D01*
X12640658Y-10780174D02*
X12659705Y-10770650D01*
X12659705Y-10770650D02*
X12688277Y-10770650D01*
X12688277Y-10770650D02*
X12707324Y-10780174D01*
X12707324Y-10780174D02*
X12716848Y-10799222D01*
X12716848Y-10799222D02*
X12716848Y-10903984D01*
X12812086Y-10903984D02*
X12812086Y-10770650D01*
X12812086Y-10789698D02*
X12821610Y-10780174D01*
X12821610Y-10780174D02*
X12840658Y-10770650D01*
X12840658Y-10770650D02*
X12869229Y-10770650D01*
X12869229Y-10770650D02*
X12888277Y-10780174D01*
X12888277Y-10780174D02*
X12897801Y-10799222D01*
X12897801Y-10799222D02*
X12897801Y-10903984D01*
X12897801Y-10799222D02*
X12907324Y-10780174D01*
X12907324Y-10780174D02*
X12926372Y-10770650D01*
X12926372Y-10770650D02*
X12954943Y-10770650D01*
X12954943Y-10770650D02*
X12973991Y-10780174D01*
X12973991Y-10780174D02*
X12983515Y-10799222D01*
X12983515Y-10799222D02*
X12983515Y-10903984D01*
X13373991Y-10694460D02*
X13202563Y-10951603D01*
X13631134Y-10703984D02*
X13650182Y-10703984D01*
X13650182Y-10703984D02*
X13669229Y-10713508D01*
X13669229Y-10713508D02*
X13678753Y-10723031D01*
X13678753Y-10723031D02*
X13688277Y-10742079D01*
X13688277Y-10742079D02*
X13697801Y-10780174D01*
X13697801Y-10780174D02*
X13697801Y-10827793D01*
X13697801Y-10827793D02*
X13688277Y-10865889D01*
X13688277Y-10865889D02*
X13678753Y-10884936D01*
X13678753Y-10884936D02*
X13669229Y-10894460D01*
X13669229Y-10894460D02*
X13650182Y-10903984D01*
X13650182Y-10903984D02*
X13631134Y-10903984D01*
X13631134Y-10903984D02*
X13612086Y-10894460D01*
X13612086Y-10894460D02*
X13602563Y-10884936D01*
X13602563Y-10884936D02*
X13593039Y-10865889D01*
X13593039Y-10865889D02*
X13583515Y-10827793D01*
X13583515Y-10827793D02*
X13583515Y-10780174D01*
X13583515Y-10780174D02*
X13593039Y-10742079D01*
X13593039Y-10742079D02*
X13602563Y-10723031D01*
X13602563Y-10723031D02*
X13612086Y-10713508D01*
X13612086Y-10713508D02*
X13631134Y-10703984D01*
X13783515Y-10884936D02*
X13793039Y-10894460D01*
X13793039Y-10894460D02*
X13783515Y-10903984D01*
X13783515Y-10903984D02*
X13773991Y-10894460D01*
X13773991Y-10894460D02*
X13783515Y-10884936D01*
X13783515Y-10884936D02*
X13783515Y-10903984D01*
X13916848Y-10703984D02*
X13935896Y-10703984D01*
X13935896Y-10703984D02*
X13954944Y-10713508D01*
X13954944Y-10713508D02*
X13964467Y-10723031D01*
X13964467Y-10723031D02*
X13973991Y-10742079D01*
X13973991Y-10742079D02*
X13983515Y-10780174D01*
X13983515Y-10780174D02*
X13983515Y-10827793D01*
X13983515Y-10827793D02*
X13973991Y-10865889D01*
X13973991Y-10865889D02*
X13964467Y-10884936D01*
X13964467Y-10884936D02*
X13954944Y-10894460D01*
X13954944Y-10894460D02*
X13935896Y-10903984D01*
X13935896Y-10903984D02*
X13916848Y-10903984D01*
X13916848Y-10903984D02*
X13897801Y-10894460D01*
X13897801Y-10894460D02*
X13888277Y-10884936D01*
X13888277Y-10884936D02*
X13878753Y-10865889D01*
X13878753Y-10865889D02*
X13869229Y-10827793D01*
X13869229Y-10827793D02*
X13869229Y-10780174D01*
X13869229Y-10780174D02*
X13878753Y-10742079D01*
X13878753Y-10742079D02*
X13888277Y-10723031D01*
X13888277Y-10723031D02*
X13897801Y-10713508D01*
X13897801Y-10713508D02*
X13916848Y-10703984D01*
X14050182Y-10703984D02*
X14173991Y-10703984D01*
X14173991Y-10703984D02*
X14107325Y-10780174D01*
X14107325Y-10780174D02*
X14135896Y-10780174D01*
X14135896Y-10780174D02*
X14154944Y-10789698D01*
X14154944Y-10789698D02*
X14164467Y-10799222D01*
X14164467Y-10799222D02*
X14173991Y-10818270D01*
X14173991Y-10818270D02*
X14173991Y-10865889D01*
X14173991Y-10865889D02*
X14164467Y-10884936D01*
X14164467Y-10884936D02*
X14154944Y-10894460D01*
X14154944Y-10894460D02*
X14135896Y-10903984D01*
X14135896Y-10903984D02*
X14078753Y-10903984D01*
X14078753Y-10903984D02*
X14059706Y-10894460D01*
X14059706Y-10894460D02*
X14050182Y-10884936D01*
X14364467Y-10903984D02*
X14250182Y-10903984D01*
X14307325Y-10903984D02*
X14307325Y-10703984D01*
X14307325Y-10703984D02*
X14288277Y-10732555D01*
X14288277Y-10732555D02*
X14269229Y-10751603D01*
X14269229Y-10751603D02*
X14250182Y-10761127D01*
X14545420Y-10703984D02*
X14450182Y-10703984D01*
X14450182Y-10703984D02*
X14440658Y-10799222D01*
X14440658Y-10799222D02*
X14450182Y-10789698D01*
X14450182Y-10789698D02*
X14469229Y-10780174D01*
X14469229Y-10780174D02*
X14516848Y-10780174D01*
X14516848Y-10780174D02*
X14535896Y-10789698D01*
X14535896Y-10789698D02*
X14545420Y-10799222D01*
X14545420Y-10799222D02*
X14554944Y-10818270D01*
X14554944Y-10818270D02*
X14554944Y-10865889D01*
X14554944Y-10865889D02*
X14545420Y-10884936D01*
X14545420Y-10884936D02*
X14535896Y-10894460D01*
X14535896Y-10894460D02*
X14516848Y-10903984D01*
X14516848Y-10903984D02*
X14469229Y-10903984D01*
X14469229Y-10903984D02*
X14450182Y-10894460D01*
X14450182Y-10894460D02*
X14440658Y-10884936D01*
X14631134Y-10703984D02*
X14631134Y-10742079D01*
X14707325Y-10703984D02*
X14707325Y-10742079D01*
X15002563Y-10980174D02*
X14993039Y-10970650D01*
X14993039Y-10970650D02*
X14973991Y-10942079D01*
X14973991Y-10942079D02*
X14964468Y-10923031D01*
X14964468Y-10923031D02*
X14954944Y-10894460D01*
X14954944Y-10894460D02*
X14945420Y-10846841D01*
X14945420Y-10846841D02*
X14945420Y-10808746D01*
X14945420Y-10808746D02*
X14954944Y-10761127D01*
X14954944Y-10761127D02*
X14964468Y-10732555D01*
X14964468Y-10732555D02*
X14973991Y-10713508D01*
X14973991Y-10713508D02*
X14993039Y-10684936D01*
X14993039Y-10684936D02*
X15002563Y-10675412D01*
X15069229Y-10723031D02*
X15078753Y-10713508D01*
X15078753Y-10713508D02*
X15097801Y-10703984D01*
X15097801Y-10703984D02*
X15145420Y-10703984D01*
X15145420Y-10703984D02*
X15164468Y-10713508D01*
X15164468Y-10713508D02*
X15173991Y-10723031D01*
X15173991Y-10723031D02*
X15183515Y-10742079D01*
X15183515Y-10742079D02*
X15183515Y-10761127D01*
X15183515Y-10761127D02*
X15173991Y-10789698D01*
X15173991Y-10789698D02*
X15059706Y-10903984D01*
X15059706Y-10903984D02*
X15183515Y-10903984D01*
X15307325Y-10703984D02*
X15326372Y-10703984D01*
X15326372Y-10703984D02*
X15345420Y-10713508D01*
X15345420Y-10713508D02*
X15354944Y-10723031D01*
X15354944Y-10723031D02*
X15364468Y-10742079D01*
X15364468Y-10742079D02*
X15373991Y-10780174D01*
X15373991Y-10780174D02*
X15373991Y-10827793D01*
X15373991Y-10827793D02*
X15364468Y-10865889D01*
X15364468Y-10865889D02*
X15354944Y-10884936D01*
X15354944Y-10884936D02*
X15345420Y-10894460D01*
X15345420Y-10894460D02*
X15326372Y-10903984D01*
X15326372Y-10903984D02*
X15307325Y-10903984D01*
X15307325Y-10903984D02*
X15288277Y-10894460D01*
X15288277Y-10894460D02*
X15278753Y-10884936D01*
X15278753Y-10884936D02*
X15269229Y-10865889D01*
X15269229Y-10865889D02*
X15259706Y-10827793D01*
X15259706Y-10827793D02*
X15259706Y-10780174D01*
X15259706Y-10780174D02*
X15269229Y-10742079D01*
X15269229Y-10742079D02*
X15278753Y-10723031D01*
X15278753Y-10723031D02*
X15288277Y-10713508D01*
X15288277Y-10713508D02*
X15307325Y-10703984D01*
X15612087Y-10903984D02*
X15612087Y-10703984D01*
X15697801Y-10903984D02*
X15697801Y-10799222D01*
X15697801Y-10799222D02*
X15688277Y-10780174D01*
X15688277Y-10780174D02*
X15669230Y-10770650D01*
X15669230Y-10770650D02*
X15640658Y-10770650D01*
X15640658Y-10770650D02*
X15621610Y-10780174D01*
X15621610Y-10780174D02*
X15612087Y-10789698D01*
X15821610Y-10903984D02*
X15802563Y-10894460D01*
X15802563Y-10894460D02*
X15793039Y-10884936D01*
X15793039Y-10884936D02*
X15783515Y-10865889D01*
X15783515Y-10865889D02*
X15783515Y-10808746D01*
X15783515Y-10808746D02*
X15793039Y-10789698D01*
X15793039Y-10789698D02*
X15802563Y-10780174D01*
X15802563Y-10780174D02*
X15821610Y-10770650D01*
X15821610Y-10770650D02*
X15850182Y-10770650D01*
X15850182Y-10770650D02*
X15869230Y-10780174D01*
X15869230Y-10780174D02*
X15878753Y-10789698D01*
X15878753Y-10789698D02*
X15888277Y-10808746D01*
X15888277Y-10808746D02*
X15888277Y-10865889D01*
X15888277Y-10865889D02*
X15878753Y-10884936D01*
X15878753Y-10884936D02*
X15869230Y-10894460D01*
X15869230Y-10894460D02*
X15850182Y-10903984D01*
X15850182Y-10903984D02*
X15821610Y-10903984D01*
X16002563Y-10903984D02*
X15983515Y-10894460D01*
X15983515Y-10894460D02*
X15973991Y-10875412D01*
X15973991Y-10875412D02*
X15973991Y-10703984D01*
X16154944Y-10894460D02*
X16135896Y-10903984D01*
X16135896Y-10903984D02*
X16097801Y-10903984D01*
X16097801Y-10903984D02*
X16078753Y-10894460D01*
X16078753Y-10894460D02*
X16069230Y-10875412D01*
X16069230Y-10875412D02*
X16069230Y-10799222D01*
X16069230Y-10799222D02*
X16078753Y-10780174D01*
X16078753Y-10780174D02*
X16097801Y-10770650D01*
X16097801Y-10770650D02*
X16135896Y-10770650D01*
X16135896Y-10770650D02*
X16154944Y-10780174D01*
X16154944Y-10780174D02*
X16164468Y-10799222D01*
X16164468Y-10799222D02*
X16164468Y-10818270D01*
X16164468Y-10818270D02*
X16069230Y-10837317D01*
X16240658Y-10894460D02*
X16259706Y-10903984D01*
X16259706Y-10903984D02*
X16297801Y-10903984D01*
X16297801Y-10903984D02*
X16316849Y-10894460D01*
X16316849Y-10894460D02*
X16326372Y-10875412D01*
X16326372Y-10875412D02*
X16326372Y-10865889D01*
X16326372Y-10865889D02*
X16316849Y-10846841D01*
X16316849Y-10846841D02*
X16297801Y-10837317D01*
X16297801Y-10837317D02*
X16269230Y-10837317D01*
X16269230Y-10837317D02*
X16250182Y-10827793D01*
X16250182Y-10827793D02*
X16240658Y-10808746D01*
X16240658Y-10808746D02*
X16240658Y-10799222D01*
X16240658Y-10799222D02*
X16250182Y-10780174D01*
X16250182Y-10780174D02*
X16269230Y-10770650D01*
X16269230Y-10770650D02*
X16297801Y-10770650D01*
X16297801Y-10770650D02*
X16316849Y-10780174D01*
X16393039Y-10980174D02*
X16402563Y-10970650D01*
X16402563Y-10970650D02*
X16421611Y-10942079D01*
X16421611Y-10942079D02*
X16431134Y-10923031D01*
X16431134Y-10923031D02*
X16440658Y-10894460D01*
X16440658Y-10894460D02*
X16450182Y-10846841D01*
X16450182Y-10846841D02*
X16450182Y-10808746D01*
X16450182Y-10808746D02*
X16440658Y-10761127D01*
X16440658Y-10761127D02*
X16431134Y-10732555D01*
X16431134Y-10732555D02*
X16421611Y-10713508D01*
X16421611Y-10713508D02*
X16402563Y-10684936D01*
X16402563Y-10684936D02*
X16393039Y-10675412D01*
D12*
X11377500Y-11026500D02*
X11377500Y-11126500D01*
X11327500Y-11076500D02*
X11427500Y-11076500D01*
D11*
X11793039Y-11167984D02*
X11678753Y-11167984D01*
X11735896Y-11167984D02*
X11735896Y-10967984D01*
X11735896Y-10967984D02*
X11716848Y-10996555D01*
X11716848Y-10996555D02*
X11697801Y-11015603D01*
X11697801Y-11015603D02*
X11678753Y-11025127D01*
X11878753Y-11148936D02*
X11888277Y-11158460D01*
X11888277Y-11158460D02*
X11878753Y-11167984D01*
X11878753Y-11167984D02*
X11869229Y-11158460D01*
X11869229Y-11158460D02*
X11878753Y-11148936D01*
X11878753Y-11148936D02*
X11878753Y-11167984D01*
X12012086Y-10967984D02*
X12031134Y-10967984D01*
X12031134Y-10967984D02*
X12050182Y-10977508D01*
X12050182Y-10977508D02*
X12059705Y-10987031D01*
X12059705Y-10987031D02*
X12069229Y-11006079D01*
X12069229Y-11006079D02*
X12078753Y-11044174D01*
X12078753Y-11044174D02*
X12078753Y-11091793D01*
X12078753Y-11091793D02*
X12069229Y-11129889D01*
X12069229Y-11129889D02*
X12059705Y-11148936D01*
X12059705Y-11148936D02*
X12050182Y-11158460D01*
X12050182Y-11158460D02*
X12031134Y-11167984D01*
X12031134Y-11167984D02*
X12012086Y-11167984D01*
X12012086Y-11167984D02*
X11993039Y-11158460D01*
X11993039Y-11158460D02*
X11983515Y-11148936D01*
X11983515Y-11148936D02*
X11973991Y-11129889D01*
X11973991Y-11129889D02*
X11964467Y-11091793D01*
X11964467Y-11091793D02*
X11964467Y-11044174D01*
X11964467Y-11044174D02*
X11973991Y-11006079D01*
X11973991Y-11006079D02*
X11983515Y-10987031D01*
X11983515Y-10987031D02*
X11993039Y-10977508D01*
X11993039Y-10977508D02*
X12012086Y-10967984D01*
X12202562Y-10967984D02*
X12221610Y-10967984D01*
X12221610Y-10967984D02*
X12240658Y-10977508D01*
X12240658Y-10977508D02*
X12250182Y-10987031D01*
X12250182Y-10987031D02*
X12259705Y-11006079D01*
X12259705Y-11006079D02*
X12269229Y-11044174D01*
X12269229Y-11044174D02*
X12269229Y-11091793D01*
X12269229Y-11091793D02*
X12259705Y-11129889D01*
X12259705Y-11129889D02*
X12250182Y-11148936D01*
X12250182Y-11148936D02*
X12240658Y-11158460D01*
X12240658Y-11158460D02*
X12221610Y-11167984D01*
X12221610Y-11167984D02*
X12202562Y-11167984D01*
X12202562Y-11167984D02*
X12183515Y-11158460D01*
X12183515Y-11158460D02*
X12173991Y-11148936D01*
X12173991Y-11148936D02*
X12164467Y-11129889D01*
X12164467Y-11129889D02*
X12154943Y-11091793D01*
X12154943Y-11091793D02*
X12154943Y-11044174D01*
X12154943Y-11044174D02*
X12164467Y-11006079D01*
X12164467Y-11006079D02*
X12173991Y-10987031D01*
X12173991Y-10987031D02*
X12183515Y-10977508D01*
X12183515Y-10977508D02*
X12202562Y-10967984D01*
X12393039Y-10967984D02*
X12412086Y-10967984D01*
X12412086Y-10967984D02*
X12431134Y-10977508D01*
X12431134Y-10977508D02*
X12440658Y-10987031D01*
X12440658Y-10987031D02*
X12450182Y-11006079D01*
X12450182Y-11006079D02*
X12459705Y-11044174D01*
X12459705Y-11044174D02*
X12459705Y-11091793D01*
X12459705Y-11091793D02*
X12450182Y-11129889D01*
X12450182Y-11129889D02*
X12440658Y-11148936D01*
X12440658Y-11148936D02*
X12431134Y-11158460D01*
X12431134Y-11158460D02*
X12412086Y-11167984D01*
X12412086Y-11167984D02*
X12393039Y-11167984D01*
X12393039Y-11167984D02*
X12373991Y-11158460D01*
X12373991Y-11158460D02*
X12364467Y-11148936D01*
X12364467Y-11148936D02*
X12354943Y-11129889D01*
X12354943Y-11129889D02*
X12345420Y-11091793D01*
X12345420Y-11091793D02*
X12345420Y-11044174D01*
X12345420Y-11044174D02*
X12354943Y-11006079D01*
X12354943Y-11006079D02*
X12364467Y-10987031D01*
X12364467Y-10987031D02*
X12373991Y-10977508D01*
X12373991Y-10977508D02*
X12393039Y-10967984D01*
X12545420Y-11167984D02*
X12545420Y-11034650D01*
X12545420Y-11053698D02*
X12554943Y-11044174D01*
X12554943Y-11044174D02*
X12573991Y-11034650D01*
X12573991Y-11034650D02*
X12602563Y-11034650D01*
X12602563Y-11034650D02*
X12621610Y-11044174D01*
X12621610Y-11044174D02*
X12631134Y-11063222D01*
X12631134Y-11063222D02*
X12631134Y-11167984D01*
X12631134Y-11063222D02*
X12640658Y-11044174D01*
X12640658Y-11044174D02*
X12659705Y-11034650D01*
X12659705Y-11034650D02*
X12688277Y-11034650D01*
X12688277Y-11034650D02*
X12707324Y-11044174D01*
X12707324Y-11044174D02*
X12716848Y-11063222D01*
X12716848Y-11063222D02*
X12716848Y-11167984D01*
X12812086Y-11167984D02*
X12812086Y-11034650D01*
X12812086Y-11053698D02*
X12821610Y-11044174D01*
X12821610Y-11044174D02*
X12840658Y-11034650D01*
X12840658Y-11034650D02*
X12869229Y-11034650D01*
X12869229Y-11034650D02*
X12888277Y-11044174D01*
X12888277Y-11044174D02*
X12897801Y-11063222D01*
X12897801Y-11063222D02*
X12897801Y-11167984D01*
X12897801Y-11063222D02*
X12907324Y-11044174D01*
X12907324Y-11044174D02*
X12926372Y-11034650D01*
X12926372Y-11034650D02*
X12954943Y-11034650D01*
X12954943Y-11034650D02*
X12973991Y-11044174D01*
X12973991Y-11044174D02*
X12983515Y-11063222D01*
X12983515Y-11063222D02*
X12983515Y-11167984D01*
X13373991Y-10958460D02*
X13202563Y-11215603D01*
X13631134Y-10967984D02*
X13650182Y-10967984D01*
X13650182Y-10967984D02*
X13669229Y-10977508D01*
X13669229Y-10977508D02*
X13678753Y-10987031D01*
X13678753Y-10987031D02*
X13688277Y-11006079D01*
X13688277Y-11006079D02*
X13697801Y-11044174D01*
X13697801Y-11044174D02*
X13697801Y-11091793D01*
X13697801Y-11091793D02*
X13688277Y-11129889D01*
X13688277Y-11129889D02*
X13678753Y-11148936D01*
X13678753Y-11148936D02*
X13669229Y-11158460D01*
X13669229Y-11158460D02*
X13650182Y-11167984D01*
X13650182Y-11167984D02*
X13631134Y-11167984D01*
X13631134Y-11167984D02*
X13612086Y-11158460D01*
X13612086Y-11158460D02*
X13602563Y-11148936D01*
X13602563Y-11148936D02*
X13593039Y-11129889D01*
X13593039Y-11129889D02*
X13583515Y-11091793D01*
X13583515Y-11091793D02*
X13583515Y-11044174D01*
X13583515Y-11044174D02*
X13593039Y-11006079D01*
X13593039Y-11006079D02*
X13602563Y-10987031D01*
X13602563Y-10987031D02*
X13612086Y-10977508D01*
X13612086Y-10977508D02*
X13631134Y-10967984D01*
X13783515Y-11148936D02*
X13793039Y-11158460D01*
X13793039Y-11158460D02*
X13783515Y-11167984D01*
X13783515Y-11167984D02*
X13773991Y-11158460D01*
X13773991Y-11158460D02*
X13783515Y-11148936D01*
X13783515Y-11148936D02*
X13783515Y-11167984D01*
X13916848Y-10967984D02*
X13935896Y-10967984D01*
X13935896Y-10967984D02*
X13954944Y-10977508D01*
X13954944Y-10977508D02*
X13964467Y-10987031D01*
X13964467Y-10987031D02*
X13973991Y-11006079D01*
X13973991Y-11006079D02*
X13983515Y-11044174D01*
X13983515Y-11044174D02*
X13983515Y-11091793D01*
X13983515Y-11091793D02*
X13973991Y-11129889D01*
X13973991Y-11129889D02*
X13964467Y-11148936D01*
X13964467Y-11148936D02*
X13954944Y-11158460D01*
X13954944Y-11158460D02*
X13935896Y-11167984D01*
X13935896Y-11167984D02*
X13916848Y-11167984D01*
X13916848Y-11167984D02*
X13897801Y-11158460D01*
X13897801Y-11158460D02*
X13888277Y-11148936D01*
X13888277Y-11148936D02*
X13878753Y-11129889D01*
X13878753Y-11129889D02*
X13869229Y-11091793D01*
X13869229Y-11091793D02*
X13869229Y-11044174D01*
X13869229Y-11044174D02*
X13878753Y-11006079D01*
X13878753Y-11006079D02*
X13888277Y-10987031D01*
X13888277Y-10987031D02*
X13897801Y-10977508D01*
X13897801Y-10977508D02*
X13916848Y-10967984D01*
X14050182Y-10967984D02*
X14173991Y-10967984D01*
X14173991Y-10967984D02*
X14107325Y-11044174D01*
X14107325Y-11044174D02*
X14135896Y-11044174D01*
X14135896Y-11044174D02*
X14154944Y-11053698D01*
X14154944Y-11053698D02*
X14164467Y-11063222D01*
X14164467Y-11063222D02*
X14173991Y-11082270D01*
X14173991Y-11082270D02*
X14173991Y-11129889D01*
X14173991Y-11129889D02*
X14164467Y-11148936D01*
X14164467Y-11148936D02*
X14154944Y-11158460D01*
X14154944Y-11158460D02*
X14135896Y-11167984D01*
X14135896Y-11167984D02*
X14078753Y-11167984D01*
X14078753Y-11167984D02*
X14059706Y-11158460D01*
X14059706Y-11158460D02*
X14050182Y-11148936D01*
X14269229Y-11167984D02*
X14307325Y-11167984D01*
X14307325Y-11167984D02*
X14326372Y-11158460D01*
X14326372Y-11158460D02*
X14335896Y-11148936D01*
X14335896Y-11148936D02*
X14354944Y-11120365D01*
X14354944Y-11120365D02*
X14364467Y-11082270D01*
X14364467Y-11082270D02*
X14364467Y-11006079D01*
X14364467Y-11006079D02*
X14354944Y-10987031D01*
X14354944Y-10987031D02*
X14345420Y-10977508D01*
X14345420Y-10977508D02*
X14326372Y-10967984D01*
X14326372Y-10967984D02*
X14288277Y-10967984D01*
X14288277Y-10967984D02*
X14269229Y-10977508D01*
X14269229Y-10977508D02*
X14259706Y-10987031D01*
X14259706Y-10987031D02*
X14250182Y-11006079D01*
X14250182Y-11006079D02*
X14250182Y-11053698D01*
X14250182Y-11053698D02*
X14259706Y-11072746D01*
X14259706Y-11072746D02*
X14269229Y-11082270D01*
X14269229Y-11082270D02*
X14288277Y-11091793D01*
X14288277Y-11091793D02*
X14326372Y-11091793D01*
X14326372Y-11091793D02*
X14345420Y-11082270D01*
X14345420Y-11082270D02*
X14354944Y-11072746D01*
X14354944Y-11072746D02*
X14364467Y-11053698D01*
X14535896Y-11034650D02*
X14535896Y-11167984D01*
X14488277Y-10958460D02*
X14440658Y-11101317D01*
X14440658Y-11101317D02*
X14564467Y-11101317D01*
X14631134Y-10967984D02*
X14631134Y-11006079D01*
X14707325Y-10967984D02*
X14707325Y-11006079D01*
X15002563Y-11244174D02*
X14993039Y-11234650D01*
X14993039Y-11234650D02*
X14973991Y-11206079D01*
X14973991Y-11206079D02*
X14964468Y-11187031D01*
X14964468Y-11187031D02*
X14954944Y-11158460D01*
X14954944Y-11158460D02*
X14945420Y-11110841D01*
X14945420Y-11110841D02*
X14945420Y-11072746D01*
X14945420Y-11072746D02*
X14954944Y-11025127D01*
X14954944Y-11025127D02*
X14964468Y-10996555D01*
X14964468Y-10996555D02*
X14973991Y-10977508D01*
X14973991Y-10977508D02*
X14993039Y-10948936D01*
X14993039Y-10948936D02*
X15002563Y-10939412D01*
X15107325Y-11053698D02*
X15088277Y-11044174D01*
X15088277Y-11044174D02*
X15078753Y-11034650D01*
X15078753Y-11034650D02*
X15069229Y-11015603D01*
X15069229Y-11015603D02*
X15069229Y-11006079D01*
X15069229Y-11006079D02*
X15078753Y-10987031D01*
X15078753Y-10987031D02*
X15088277Y-10977508D01*
X15088277Y-10977508D02*
X15107325Y-10967984D01*
X15107325Y-10967984D02*
X15145420Y-10967984D01*
X15145420Y-10967984D02*
X15164468Y-10977508D01*
X15164468Y-10977508D02*
X15173991Y-10987031D01*
X15173991Y-10987031D02*
X15183515Y-11006079D01*
X15183515Y-11006079D02*
X15183515Y-11015603D01*
X15183515Y-11015603D02*
X15173991Y-11034650D01*
X15173991Y-11034650D02*
X15164468Y-11044174D01*
X15164468Y-11044174D02*
X15145420Y-11053698D01*
X15145420Y-11053698D02*
X15107325Y-11053698D01*
X15107325Y-11053698D02*
X15088277Y-11063222D01*
X15088277Y-11063222D02*
X15078753Y-11072746D01*
X15078753Y-11072746D02*
X15069229Y-11091793D01*
X15069229Y-11091793D02*
X15069229Y-11129889D01*
X15069229Y-11129889D02*
X15078753Y-11148936D01*
X15078753Y-11148936D02*
X15088277Y-11158460D01*
X15088277Y-11158460D02*
X15107325Y-11167984D01*
X15107325Y-11167984D02*
X15145420Y-11167984D01*
X15145420Y-11167984D02*
X15164468Y-11158460D01*
X15164468Y-11158460D02*
X15173991Y-11148936D01*
X15173991Y-11148936D02*
X15183515Y-11129889D01*
X15183515Y-11129889D02*
X15183515Y-11091793D01*
X15183515Y-11091793D02*
X15173991Y-11072746D01*
X15173991Y-11072746D02*
X15164468Y-11063222D01*
X15164468Y-11063222D02*
X15145420Y-11053698D01*
X15421610Y-11167984D02*
X15421610Y-10967984D01*
X15507325Y-11167984D02*
X15507325Y-11063222D01*
X15507325Y-11063222D02*
X15497801Y-11044174D01*
X15497801Y-11044174D02*
X15478753Y-11034650D01*
X15478753Y-11034650D02*
X15450182Y-11034650D01*
X15450182Y-11034650D02*
X15431134Y-11044174D01*
X15431134Y-11044174D02*
X15421610Y-11053698D01*
X15631134Y-11167984D02*
X15612087Y-11158460D01*
X15612087Y-11158460D02*
X15602563Y-11148936D01*
X15602563Y-11148936D02*
X15593039Y-11129889D01*
X15593039Y-11129889D02*
X15593039Y-11072746D01*
X15593039Y-11072746D02*
X15602563Y-11053698D01*
X15602563Y-11053698D02*
X15612087Y-11044174D01*
X15612087Y-11044174D02*
X15631134Y-11034650D01*
X15631134Y-11034650D02*
X15659706Y-11034650D01*
X15659706Y-11034650D02*
X15678753Y-11044174D01*
X15678753Y-11044174D02*
X15688277Y-11053698D01*
X15688277Y-11053698D02*
X15697801Y-11072746D01*
X15697801Y-11072746D02*
X15697801Y-11129889D01*
X15697801Y-11129889D02*
X15688277Y-11148936D01*
X15688277Y-11148936D02*
X15678753Y-11158460D01*
X15678753Y-11158460D02*
X15659706Y-11167984D01*
X15659706Y-11167984D02*
X15631134Y-11167984D01*
X15812087Y-11167984D02*
X15793039Y-11158460D01*
X15793039Y-11158460D02*
X15783515Y-11139412D01*
X15783515Y-11139412D02*
X15783515Y-10967984D01*
X15964468Y-11158460D02*
X15945420Y-11167984D01*
X15945420Y-11167984D02*
X15907325Y-11167984D01*
X15907325Y-11167984D02*
X15888277Y-11158460D01*
X15888277Y-11158460D02*
X15878753Y-11139412D01*
X15878753Y-11139412D02*
X15878753Y-11063222D01*
X15878753Y-11063222D02*
X15888277Y-11044174D01*
X15888277Y-11044174D02*
X15907325Y-11034650D01*
X15907325Y-11034650D02*
X15945420Y-11034650D01*
X15945420Y-11034650D02*
X15964468Y-11044174D01*
X15964468Y-11044174D02*
X15973991Y-11063222D01*
X15973991Y-11063222D02*
X15973991Y-11082270D01*
X15973991Y-11082270D02*
X15878753Y-11101317D01*
X16050182Y-11158460D02*
X16069230Y-11167984D01*
X16069230Y-11167984D02*
X16107325Y-11167984D01*
X16107325Y-11167984D02*
X16126372Y-11158460D01*
X16126372Y-11158460D02*
X16135896Y-11139412D01*
X16135896Y-11139412D02*
X16135896Y-11129889D01*
X16135896Y-11129889D02*
X16126372Y-11110841D01*
X16126372Y-11110841D02*
X16107325Y-11101317D01*
X16107325Y-11101317D02*
X16078753Y-11101317D01*
X16078753Y-11101317D02*
X16059706Y-11091793D01*
X16059706Y-11091793D02*
X16050182Y-11072746D01*
X16050182Y-11072746D02*
X16050182Y-11063222D01*
X16050182Y-11063222D02*
X16059706Y-11044174D01*
X16059706Y-11044174D02*
X16078753Y-11034650D01*
X16078753Y-11034650D02*
X16107325Y-11034650D01*
X16107325Y-11034650D02*
X16126372Y-11044174D01*
X16202563Y-11244174D02*
X16212087Y-11234650D01*
X16212087Y-11234650D02*
X16231134Y-11206079D01*
X16231134Y-11206079D02*
X16240658Y-11187031D01*
X16240658Y-11187031D02*
X16250182Y-11158460D01*
X16250182Y-11158460D02*
X16259706Y-11110841D01*
X16259706Y-11110841D02*
X16259706Y-11072746D01*
X16259706Y-11072746D02*
X16250182Y-11025127D01*
X16250182Y-11025127D02*
X16240658Y-10996555D01*
X16240658Y-10996555D02*
X16231134Y-10977508D01*
X16231134Y-10977508D02*
X16212087Y-10948936D01*
X16212087Y-10948936D02*
X16202563Y-10939412D01*
M02*
