M48
; DRILL file {KiCad 8.0.6} date 2025-02-01T10:00:50+0100
; FORMAT={-:-/ absolute / inch / decimal}
; #@! TF.CreationDate,2025-02-01T10:00:50+01:00
; #@! TF.GenerationSoftware,Kicad,Pcbnew,8.0.6
; #@! TF.FileFunction,Plated,1,2,PTH
FMAT,2
INCH
; #@! TA.AperFunction,Plated,PTH,ComponentDrill
T1C0.0295
; #@! TA.AperFunction,Plated,PTH,ComponentDrill
T2C0.0315
; #@! TA.AperFunction,Plated,PTH,ComponentDrill
T3C0.0394
%
G90
G05
T1
X6.05Y-3.4
X6.05Y-3.5
X6.1Y-3.45
T2
X5.0Y-3.0
X5.0Y-3.5
X5.4Y-3.0
X5.4Y-3.5
X5.515Y-3.0295
X5.515Y-3.1295
X5.515Y-3.2295
X5.515Y-3.5006
X5.515Y-3.6006
X5.515Y-3.7006
X5.815Y-3.0295
X5.815Y-3.1295
X5.815Y-3.2295
X5.815Y-3.5006
X5.815Y-3.6006
X5.815Y-3.7006
X6.0Y-3.0
X6.0Y-3.2
X6.4Y-3.0
X6.4Y-3.2
T3
X4.8Y-3.3
X4.8Y-3.4
X4.8Y-3.5
X4.8Y-3.6
X6.4Y-3.4
X6.4Y-3.5
X6.4Y-3.6
X6.4Y-3.7
M30
