%TF.GenerationSoftware,KiCad,Pcbnew,8.0.6*%
%TF.CreationDate,2025-02-01T10:00:51+01:00*%
%TF.ProjectId,Optoisolatore_K40_1.0,4f70746f-6973-46f6-9c61-746f72655f4b,rev?*%
%TF.SameCoordinates,Original*%
%TF.FileFunction,Drillmap*%
%TF.FilePolarity,Positive*%
%FSLAX45Y45*%
G04 Gerber Fmt 4.5, Leading zero omitted, Abs format (unit mm)*
G04 Created by KiCad (PCBNEW 8.0.6) date 2025-02-01 10:00:51*
%MOMM*%
%LPD*%
G01*
G04 APERTURE LIST*
%ADD10C,0.050000*%
%ADD11C,0.200000*%
G04 APERTURE END LIST*
D10*
X11430000Y-7366000D02*
X17018000Y-7366000D01*
X17018000Y-9906000D01*
X11430000Y-9906000D01*
X11430000Y-7366000D01*
X11844000Y-7620000D02*
G75*
G02*
X11524000Y-7620000I-160000J0D01*
G01*
X11524000Y-7620000D02*
G75*
G02*
X11844000Y-7620000I160000J0D01*
G01*
X16924000Y-7620000D02*
G75*
G02*
X16604000Y-7620000I-160000J0D01*
G01*
X16604000Y-7620000D02*
G75*
G02*
X16924000Y-7620000I160000J0D01*
G01*
X11844000Y-9652000D02*
G75*
G02*
X11524000Y-9652000I-160000J0D01*
G01*
X11524000Y-9652000D02*
G75*
G02*
X11844000Y-9652000I160000J0D01*
G01*
D11*
X11688277Y-10219984D02*
X11688277Y-10019984D01*
X11688277Y-10019984D02*
X11735896Y-10019984D01*
X11735896Y-10019984D02*
X11764467Y-10029508D01*
X11764467Y-10029508D02*
X11783515Y-10048555D01*
X11783515Y-10048555D02*
X11793039Y-10067603D01*
X11793039Y-10067603D02*
X11802562Y-10105698D01*
X11802562Y-10105698D02*
X11802562Y-10134270D01*
X11802562Y-10134270D02*
X11793039Y-10172365D01*
X11793039Y-10172365D02*
X11783515Y-10191412D01*
X11783515Y-10191412D02*
X11764467Y-10210460D01*
X11764467Y-10210460D02*
X11735896Y-10219984D01*
X11735896Y-10219984D02*
X11688277Y-10219984D01*
X11888277Y-10219984D02*
X11888277Y-10086650D01*
X11888277Y-10124746D02*
X11897801Y-10105698D01*
X11897801Y-10105698D02*
X11907324Y-10096174D01*
X11907324Y-10096174D02*
X11926372Y-10086650D01*
X11926372Y-10086650D02*
X11945420Y-10086650D01*
X12012086Y-10219984D02*
X12012086Y-10086650D01*
X12012086Y-10019984D02*
X12002562Y-10029508D01*
X12002562Y-10029508D02*
X12012086Y-10039031D01*
X12012086Y-10039031D02*
X12021610Y-10029508D01*
X12021610Y-10029508D02*
X12012086Y-10019984D01*
X12012086Y-10019984D02*
X12012086Y-10039031D01*
X12135896Y-10219984D02*
X12116848Y-10210460D01*
X12116848Y-10210460D02*
X12107324Y-10191412D01*
X12107324Y-10191412D02*
X12107324Y-10019984D01*
X12240658Y-10219984D02*
X12221610Y-10210460D01*
X12221610Y-10210460D02*
X12212086Y-10191412D01*
X12212086Y-10191412D02*
X12212086Y-10019984D01*
X12469229Y-10219984D02*
X12469229Y-10019984D01*
X12469229Y-10019984D02*
X12535896Y-10162841D01*
X12535896Y-10162841D02*
X12602562Y-10019984D01*
X12602562Y-10019984D02*
X12602562Y-10219984D01*
X12783515Y-10219984D02*
X12783515Y-10115222D01*
X12783515Y-10115222D02*
X12773991Y-10096174D01*
X12773991Y-10096174D02*
X12754943Y-10086650D01*
X12754943Y-10086650D02*
X12716848Y-10086650D01*
X12716848Y-10086650D02*
X12697801Y-10096174D01*
X12783515Y-10210460D02*
X12764467Y-10219984D01*
X12764467Y-10219984D02*
X12716848Y-10219984D01*
X12716848Y-10219984D02*
X12697801Y-10210460D01*
X12697801Y-10210460D02*
X12688277Y-10191412D01*
X12688277Y-10191412D02*
X12688277Y-10172365D01*
X12688277Y-10172365D02*
X12697801Y-10153317D01*
X12697801Y-10153317D02*
X12716848Y-10143793D01*
X12716848Y-10143793D02*
X12764467Y-10143793D01*
X12764467Y-10143793D02*
X12783515Y-10134270D01*
X12878753Y-10086650D02*
X12878753Y-10286650D01*
X12878753Y-10096174D02*
X12897801Y-10086650D01*
X12897801Y-10086650D02*
X12935896Y-10086650D01*
X12935896Y-10086650D02*
X12954943Y-10096174D01*
X12954943Y-10096174D02*
X12964467Y-10105698D01*
X12964467Y-10105698D02*
X12973991Y-10124746D01*
X12973991Y-10124746D02*
X12973991Y-10181889D01*
X12973991Y-10181889D02*
X12964467Y-10200936D01*
X12964467Y-10200936D02*
X12954943Y-10210460D01*
X12954943Y-10210460D02*
X12935896Y-10219984D01*
X12935896Y-10219984D02*
X12897801Y-10219984D01*
X12897801Y-10219984D02*
X12878753Y-10210460D01*
X13059705Y-10200936D02*
X13069229Y-10210460D01*
X13069229Y-10210460D02*
X13059705Y-10219984D01*
X13059705Y-10219984D02*
X13050182Y-10210460D01*
X13050182Y-10210460D02*
X13059705Y-10200936D01*
X13059705Y-10200936D02*
X13059705Y-10219984D01*
X13059705Y-10096174D02*
X13069229Y-10105698D01*
X13069229Y-10105698D02*
X13059705Y-10115222D01*
X13059705Y-10115222D02*
X13050182Y-10105698D01*
X13050182Y-10105698D02*
X13059705Y-10096174D01*
X13059705Y-10096174D02*
X13059705Y-10115222D01*
M02*
