%TF.GenerationSoftware,KiCad,Pcbnew,8.0.6*%
%TF.CreationDate,2025-02-01T10:00:46+01:00*%
%TF.ProjectId,Optoisolatore_K40_1.0,4f70746f-6973-46f6-9c61-746f72655f4b,rev?*%
%TF.SameCoordinates,Original*%
%TF.FileFunction,Legend,Top*%
%TF.FilePolarity,Positive*%
%FSLAX46Y46*%
G04 Gerber Fmt 4.6, Leading zero omitted, Abs format (unit mm)*
G04 Created by KiCad (PCBNEW 8.0.6) date 2025-02-01 10:00:46*
%MOMM*%
%LPD*%
G01*
G04 APERTURE LIST*
%ADD10C,0.200000*%
%ADD11C,0.150000*%
%ADD12C,0.120000*%
G04 APERTURE END LIST*
D10*
G36*
X164502337Y-94330000D02*
G01*
X164502337Y-93313949D01*
X165248988Y-93313949D01*
X165248988Y-93485896D01*
X164705792Y-93485896D01*
X164705792Y-93704738D01*
X165211374Y-93704738D01*
X165211374Y-93876685D01*
X164705792Y-93876685D01*
X164705792Y-94158053D01*
X165268283Y-94158053D01*
X165268283Y-94330000D01*
X164502337Y-94330000D01*
G37*
G36*
X165437543Y-94330000D02*
G01*
X165437543Y-93313949D01*
X165635380Y-93313949D01*
X166047418Y-94000516D01*
X166047418Y-93313949D01*
X166236217Y-93313949D01*
X166236217Y-94330000D01*
X166032274Y-94330000D01*
X165626343Y-93653691D01*
X165626343Y-94330000D01*
X165437543Y-94330000D01*
G37*
G36*
X115570795Y-86454842D02*
G01*
X115570795Y-86282896D01*
X116009211Y-86282896D01*
X116009211Y-86691270D01*
X115968695Y-86724594D01*
X115925090Y-86752270D01*
X115881075Y-86774984D01*
X115831591Y-86796295D01*
X115824075Y-86799225D01*
X115770922Y-86817307D01*
X115717466Y-86830948D01*
X115663705Y-86840148D01*
X115609641Y-86844906D01*
X115578611Y-86845631D01*
X115520777Y-86843287D01*
X115465794Y-86836254D01*
X115413661Y-86824534D01*
X115364379Y-86808125D01*
X115317948Y-86787027D01*
X115303105Y-86778953D01*
X115261102Y-86751939D01*
X115223203Y-86720907D01*
X115184176Y-86679624D01*
X115155170Y-86639885D01*
X115130268Y-86596127D01*
X115126517Y-86588443D01*
X115106430Y-86541151D01*
X115090499Y-86492330D01*
X115078724Y-86441981D01*
X115071105Y-86390103D01*
X115067641Y-86336697D01*
X115067411Y-86318555D01*
X115069729Y-86260449D01*
X115076684Y-86204833D01*
X115088276Y-86151708D01*
X115104505Y-86101072D01*
X115125370Y-86052927D01*
X115133356Y-86037431D01*
X115160232Y-85993287D01*
X115191402Y-85953179D01*
X115226865Y-85917107D01*
X115266621Y-85885070D01*
X115310671Y-85857069D01*
X115326308Y-85848632D01*
X115377736Y-85826619D01*
X115427570Y-85812518D01*
X115481914Y-85803231D01*
X115532086Y-85799104D01*
X115567376Y-85798318D01*
X115623984Y-85800345D01*
X115676574Y-85806427D01*
X115725145Y-85816564D01*
X115778125Y-85834081D01*
X115825317Y-85857437D01*
X115860223Y-85881360D01*
X115897145Y-85914734D01*
X115928779Y-85952572D01*
X115955123Y-85994876D01*
X115976177Y-86041645D01*
X115991942Y-86092878D01*
X115996022Y-86110949D01*
X115794033Y-86142212D01*
X115777079Y-86095715D01*
X115749945Y-86052117D01*
X115713921Y-86016427D01*
X115670158Y-85990145D01*
X115619468Y-85974773D01*
X115567376Y-85970265D01*
X115511650Y-85974367D01*
X115461161Y-85986674D01*
X115415907Y-86007185D01*
X115375889Y-86035901D01*
X115355373Y-86055994D01*
X115324728Y-86097379D01*
X115301611Y-86146735D01*
X115287786Y-86195384D01*
X115279492Y-86249889D01*
X115276803Y-86299784D01*
X115276727Y-86310251D01*
X115278671Y-86364819D01*
X115284502Y-86414951D01*
X115296632Y-86469253D01*
X115314361Y-86517166D01*
X115342120Y-86564991D01*
X115356350Y-86582826D01*
X115393653Y-86618229D01*
X115435677Y-86644936D01*
X115482423Y-86662948D01*
X115533891Y-86672264D01*
X115565422Y-86673684D01*
X115617297Y-86669452D01*
X115665325Y-86658031D01*
X115693405Y-86648039D01*
X115739040Y-86627259D01*
X115782742Y-86601259D01*
X115803803Y-86585757D01*
X115803803Y-86454842D01*
X115570795Y-86454842D01*
G37*
G36*
X116852826Y-86830000D02*
G01*
X116659874Y-86830000D01*
X116659874Y-86450690D01*
X116659095Y-86395797D01*
X116656358Y-86346741D01*
X116648184Y-86297160D01*
X116647418Y-86294863D01*
X116621787Y-86252156D01*
X116607362Y-86239909D01*
X116561532Y-86221915D01*
X116540439Y-86220369D01*
X116489945Y-86228297D01*
X116450314Y-86248457D01*
X116415045Y-86283280D01*
X116395603Y-86322707D01*
X116386115Y-86373153D01*
X116382380Y-86423237D01*
X116381006Y-86478169D01*
X116380949Y-86493433D01*
X116380949Y-86830000D01*
X116187997Y-86830000D01*
X116187997Y-86095317D01*
X116367271Y-86095317D01*
X116367271Y-86202540D01*
X116404818Y-86160788D01*
X116445833Y-86127675D01*
X116490318Y-86103201D01*
X116538271Y-86087364D01*
X116589694Y-86080165D01*
X116607606Y-86079685D01*
X116657745Y-86083515D01*
X116707593Y-86096204D01*
X116724354Y-86102889D01*
X116768353Y-86127432D01*
X116804466Y-86161995D01*
X116829710Y-86205478D01*
X116842079Y-86243572D01*
X116849793Y-86294856D01*
X116852563Y-86348403D01*
X116852826Y-86373998D01*
X116852826Y-86830000D01*
G37*
G36*
X117713293Y-86830000D02*
G01*
X117534019Y-86830000D01*
X117534019Y-86722777D01*
X117501385Y-86761954D01*
X117461440Y-86796003D01*
X117428506Y-86815589D01*
X117382756Y-86833896D01*
X117332884Y-86844193D01*
X117305896Y-86845631D01*
X117252595Y-86840769D01*
X117202753Y-86826183D01*
X117156371Y-86801873D01*
X117113448Y-86767840D01*
X117090474Y-86744026D01*
X117060011Y-86703008D01*
X117035851Y-86656339D01*
X117017994Y-86604020D01*
X117007927Y-86556106D01*
X117002237Y-86504267D01*
X117000837Y-86459972D01*
X117001264Y-86448736D01*
X117197941Y-86448736D01*
X117199484Y-86499034D01*
X117205025Y-86548589D01*
X117217619Y-86598639D01*
X117230181Y-86625812D01*
X117262987Y-86667544D01*
X117307503Y-86695596D01*
X117355636Y-86704870D01*
X117360851Y-86704947D01*
X117411563Y-86695152D01*
X117455746Y-86665766D01*
X117473935Y-86645596D01*
X117498665Y-86602753D01*
X117513090Y-86554365D01*
X117519685Y-86503536D01*
X117520830Y-86468032D01*
X117518656Y-86413966D01*
X117510848Y-86360820D01*
X117495276Y-86312052D01*
X117475401Y-86278499D01*
X117437906Y-86243076D01*
X117389147Y-86223151D01*
X117359385Y-86220369D01*
X117311037Y-86228441D01*
X117265713Y-86255402D01*
X117244347Y-86277766D01*
X117217926Y-86323755D01*
X117204467Y-86371342D01*
X117198666Y-86421168D01*
X117197941Y-86448736D01*
X117001264Y-86448736D01*
X117002966Y-86403917D01*
X117009352Y-86352228D01*
X117022636Y-86295963D01*
X117042050Y-86245982D01*
X117067595Y-86202288D01*
X117088032Y-86176650D01*
X117128472Y-86138868D01*
X117173283Y-86110366D01*
X117222465Y-86091143D01*
X117276018Y-86081201D01*
X117308583Y-86079685D01*
X117360540Y-86084547D01*
X117409342Y-86099133D01*
X117454988Y-86123443D01*
X117497478Y-86157477D01*
X117520341Y-86181290D01*
X117520341Y-85813949D01*
X117713293Y-85813949D01*
X117713293Y-86830000D01*
G37*
G36*
X117785101Y-87111367D02*
G01*
X117785101Y-86986315D01*
X118587438Y-86986315D01*
X118587438Y-87111367D01*
X117785101Y-87111367D01*
G37*
G36*
X119130390Y-86830000D02*
G01*
X118937438Y-86830000D01*
X118937438Y-86094829D01*
X118896449Y-86132638D01*
X118852797Y-86166567D01*
X118806483Y-86196615D01*
X118757508Y-86222781D01*
X118705870Y-86245067D01*
X118688066Y-86251632D01*
X118688066Y-86064054D01*
X118736524Y-86044696D01*
X118782338Y-86020013D01*
X118824813Y-85992299D01*
X118852198Y-85972219D01*
X118893047Y-85936864D01*
X118926936Y-85898702D01*
X118953864Y-85857730D01*
X118973831Y-85813949D01*
X119130390Y-85813949D01*
X119130390Y-86830000D01*
G37*
G36*
X166838000Y-82473252D02*
G01*
X166911193Y-82481333D01*
X166980049Y-82494803D01*
X167044569Y-82513661D01*
X167104753Y-82537906D01*
X167173886Y-82575789D01*
X167236243Y-82622091D01*
X167259289Y-82642969D01*
X167311154Y-82699677D01*
X167354228Y-82762043D01*
X167388511Y-82830069D01*
X167414004Y-82903753D01*
X167428069Y-82966775D01*
X167436508Y-83033419D01*
X167439321Y-83103684D01*
X167436522Y-83174842D01*
X167428128Y-83242260D01*
X167414138Y-83305937D01*
X167388780Y-83380272D01*
X167354678Y-83448763D01*
X167311832Y-83511409D01*
X167260242Y-83568210D01*
X167200886Y-83617879D01*
X167134941Y-83659129D01*
X167062407Y-83691962D01*
X166999635Y-83712166D01*
X166932647Y-83726983D01*
X166861442Y-83736411D01*
X166786019Y-83740452D01*
X166766505Y-83740621D01*
X166693400Y-83738522D01*
X166624828Y-83732226D01*
X166560788Y-83721733D01*
X166491802Y-83704187D01*
X166428986Y-83680928D01*
X166368124Y-83649784D01*
X166311356Y-83612314D01*
X166258681Y-83568520D01*
X166248637Y-83559002D01*
X166202659Y-83509185D01*
X166164743Y-83456578D01*
X166132347Y-83395487D01*
X166129886Y-83389766D01*
X166107104Y-83326163D01*
X166090831Y-83257917D01*
X166081932Y-83194393D01*
X166078017Y-83127313D01*
X166077813Y-83107494D01*
X166077927Y-83104637D01*
X166301344Y-83104637D01*
X166306784Y-83173138D01*
X166323101Y-83235562D01*
X166355071Y-83299462D01*
X166401250Y-83355424D01*
X166415015Y-83368175D01*
X166470261Y-83407146D01*
X166536538Y-83436546D01*
X166602126Y-83454127D01*
X166675818Y-83464676D01*
X166743419Y-83468094D01*
X166757614Y-83468192D01*
X166825404Y-83465688D01*
X166899733Y-83456073D01*
X166966404Y-83439248D01*
X167025417Y-83415211D01*
X167084587Y-83378054D01*
X167099579Y-83365635D01*
X167144860Y-83317983D01*
X167182992Y-83257050D01*
X167206597Y-83189211D01*
X167215336Y-83124186D01*
X167215789Y-83104637D01*
X167210274Y-83038178D01*
X167190464Y-82968885D01*
X167156247Y-82906696D01*
X167114488Y-82858109D01*
X167100531Y-82845226D01*
X167044452Y-82805760D01*
X166977341Y-82775987D01*
X166911039Y-82758182D01*
X166836632Y-82747500D01*
X166768436Y-82744038D01*
X166754122Y-82743939D01*
X166685617Y-82746350D01*
X166610902Y-82755607D01*
X166544357Y-82771808D01*
X166477049Y-82799484D01*
X166420863Y-82836611D01*
X166413745Y-82842686D01*
X166369948Y-82888972D01*
X166333067Y-82949424D01*
X166310235Y-83017933D01*
X166301783Y-83084488D01*
X166301344Y-83104637D01*
X166077927Y-83104637D01*
X166080636Y-83036912D01*
X166089105Y-82969950D01*
X166103219Y-82906611D01*
X166128802Y-82832530D01*
X166163206Y-82764107D01*
X166206432Y-82701344D01*
X166258480Y-82644239D01*
X166318288Y-82594204D01*
X166384996Y-82552649D01*
X166443330Y-82525512D01*
X166506079Y-82503801D01*
X166573243Y-82487519D01*
X166644823Y-82476664D01*
X166720818Y-82471236D01*
X166760472Y-82470558D01*
X166838000Y-82473252D01*
G37*
G36*
X167419000Y-81649780D02*
G01*
X167277070Y-81649780D01*
X167329386Y-81693195D01*
X167372503Y-81745808D01*
X167396138Y-81785994D01*
X167420724Y-81845004D01*
X167435905Y-81912032D01*
X167439321Y-81964120D01*
X167433382Y-82032838D01*
X167415566Y-82096108D01*
X167397091Y-82135261D01*
X167357172Y-82190002D01*
X167306040Y-82230908D01*
X167278658Y-82245122D01*
X167213096Y-82265825D01*
X167145977Y-82275778D01*
X167075867Y-82279063D01*
X167067510Y-82279096D01*
X166463912Y-82279096D01*
X166463912Y-82028258D01*
X166907482Y-82028258D01*
X166978268Y-82027778D01*
X167046856Y-82026005D01*
X167112895Y-82021805D01*
X167157049Y-82014605D01*
X167213097Y-81982876D01*
X167229760Y-81964120D01*
X167253827Y-81904322D01*
X167256431Y-81871088D01*
X167246305Y-81806705D01*
X167220552Y-81756147D01*
X167174763Y-81708885D01*
X167131648Y-81686294D01*
X167062892Y-81674165D01*
X166995315Y-81669774D01*
X166920396Y-81667853D01*
X166870967Y-81667561D01*
X166463912Y-81667561D01*
X166463912Y-81416723D01*
X167419000Y-81416723D01*
X167419000Y-81649780D01*
G37*
G36*
X166463912Y-80727714D02*
G01*
X166646801Y-80727714D01*
X166646801Y-80899173D01*
X167061477Y-80899173D01*
X167129997Y-80898707D01*
X167194289Y-80896266D01*
X167208487Y-80894410D01*
X167243096Y-80871866D01*
X167256431Y-80829637D01*
X167245026Y-80766905D01*
X167232300Y-80728667D01*
X167406299Y-80707076D01*
X167425099Y-80770026D01*
X167436096Y-80838378D01*
X167439321Y-80905205D01*
X167433446Y-80969820D01*
X167415824Y-81027766D01*
X167381121Y-81084473D01*
X167355179Y-81107780D01*
X167295071Y-81134419D01*
X167254526Y-81143025D01*
X167186499Y-81148978D01*
X167120682Y-81150683D01*
X167072590Y-81150963D01*
X166646801Y-81150963D01*
X166646801Y-81266221D01*
X166463912Y-81266221D01*
X166463912Y-81150963D01*
X166281023Y-81150963D01*
X166138776Y-80899173D01*
X166463912Y-80899173D01*
X166463912Y-80727714D01*
G37*
G36*
X115483493Y-83314319D02*
G01*
X115540966Y-83315739D01*
X115596515Y-83318741D01*
X115649731Y-83324730D01*
X115670446Y-83329092D01*
X115716977Y-83345944D01*
X115759026Y-83371218D01*
X115796593Y-83404917D01*
X115815526Y-83427278D01*
X115843744Y-83473365D01*
X115861074Y-83520202D01*
X115871107Y-83572565D01*
X115873900Y-83622916D01*
X115871234Y-83672530D01*
X115862018Y-83722218D01*
X115844276Y-83770264D01*
X115840195Y-83778255D01*
X115812374Y-83821703D01*
X115776499Y-83860168D01*
X115754710Y-83877173D01*
X115712317Y-83902354D01*
X115665941Y-83920547D01*
X115649197Y-83924801D01*
X115597338Y-83932400D01*
X115546681Y-83936453D01*
X115495669Y-83938521D01*
X115438415Y-83939211D01*
X115305792Y-83939211D01*
X115305792Y-84330000D01*
X115102337Y-84330000D01*
X115102337Y-83767264D01*
X115305792Y-83767264D01*
X115417166Y-83767264D01*
X115472274Y-83766302D01*
X115522372Y-83762921D01*
X115572499Y-83753740D01*
X115577878Y-83751877D01*
X115621689Y-83725468D01*
X115641381Y-83703028D01*
X115661111Y-83657309D01*
X115664340Y-83625847D01*
X115656280Y-83576571D01*
X115632100Y-83536699D01*
X115592951Y-83506774D01*
X115550279Y-83492735D01*
X115500007Y-83487826D01*
X115448545Y-83486223D01*
X115403977Y-83485896D01*
X115305792Y-83485896D01*
X115305792Y-83767264D01*
X115102337Y-83767264D01*
X115102337Y-83313949D01*
X115428646Y-83313949D01*
X115483493Y-83314319D01*
G37*
G36*
X116178227Y-84330000D02*
G01*
X115937892Y-83313949D01*
X116145987Y-83313949D01*
X116297662Y-84011995D01*
X116481821Y-83313949D01*
X116723621Y-83313949D01*
X116900209Y-84023719D01*
X117054815Y-83313949D01*
X117259490Y-83313949D01*
X117015003Y-84330000D01*
X116799337Y-84330000D01*
X116598569Y-83570404D01*
X116398778Y-84330000D01*
X116178227Y-84330000D01*
G37*
G36*
X117353524Y-84330000D02*
G01*
X117353524Y-83313949D01*
X117657850Y-83313949D01*
X117840544Y-84007110D01*
X118021284Y-83313949D01*
X118326099Y-83313949D01*
X118326099Y-84330000D01*
X118137299Y-84330000D01*
X118137299Y-83530104D01*
X117937264Y-84330000D01*
X117741625Y-84330000D01*
X117542323Y-83530104D01*
X117542323Y-84330000D01*
X117353524Y-84330000D01*
G37*
G36*
X118498290Y-84064263D02*
G01*
X118498290Y-83892316D01*
X118877599Y-83892316D01*
X118877599Y-84064263D01*
X118498290Y-84064263D01*
G37*
G36*
X118986287Y-83485896D02*
G01*
X118986287Y-83313949D01*
X119179483Y-83313949D01*
X119179483Y-83485896D01*
X118986287Y-83485896D01*
G37*
G36*
X118986287Y-84330000D02*
G01*
X118986287Y-83595317D01*
X119179483Y-83595317D01*
X119179483Y-84330000D01*
X118986287Y-84330000D01*
G37*
G36*
X120038729Y-84330000D02*
G01*
X119845778Y-84330000D01*
X119845778Y-83950690D01*
X119844999Y-83895797D01*
X119842262Y-83846741D01*
X119834088Y-83797160D01*
X119833321Y-83794863D01*
X119807691Y-83752156D01*
X119793265Y-83739909D01*
X119747436Y-83721915D01*
X119726343Y-83720369D01*
X119675848Y-83728297D01*
X119636217Y-83748457D01*
X119600948Y-83783280D01*
X119581507Y-83822707D01*
X119572019Y-83873153D01*
X119568283Y-83923237D01*
X119566910Y-83978169D01*
X119566852Y-83993433D01*
X119566852Y-84330000D01*
X119373900Y-84330000D01*
X119373900Y-83595317D01*
X119553175Y-83595317D01*
X119553175Y-83702540D01*
X119590721Y-83660788D01*
X119631737Y-83627675D01*
X119676222Y-83603201D01*
X119724175Y-83587364D01*
X119775598Y-83580165D01*
X119793510Y-83579685D01*
X119843649Y-83583515D01*
X119893497Y-83596204D01*
X119910258Y-83602889D01*
X119954257Y-83627432D01*
X119990369Y-83661995D01*
X120015614Y-83705478D01*
X120027983Y-83743572D01*
X120035696Y-83794856D01*
X120038467Y-83848403D01*
X120038729Y-83873998D01*
X120038729Y-84330000D01*
G37*
D11*
X165312969Y-85869819D02*
X164836779Y-85869819D01*
X164836779Y-85869819D02*
X164789160Y-86346009D01*
X164789160Y-86346009D02*
X164836779Y-86298390D01*
X164836779Y-86298390D02*
X164932017Y-86250771D01*
X164932017Y-86250771D02*
X165170112Y-86250771D01*
X165170112Y-86250771D02*
X165265350Y-86298390D01*
X165265350Y-86298390D02*
X165312969Y-86346009D01*
X165312969Y-86346009D02*
X165360588Y-86441247D01*
X165360588Y-86441247D02*
X165360588Y-86679342D01*
X165360588Y-86679342D02*
X165312969Y-86774580D01*
X165312969Y-86774580D02*
X165265350Y-86822200D01*
X165265350Y-86822200D02*
X165170112Y-86869819D01*
X165170112Y-86869819D02*
X164932017Y-86869819D01*
X164932017Y-86869819D02*
X164836779Y-86822200D01*
X164836779Y-86822200D02*
X164789160Y-86774580D01*
X165646303Y-85869819D02*
X165979636Y-86869819D01*
X165979636Y-86869819D02*
X166312969Y-85869819D01*
D10*
G36*
X115102337Y-91830000D02*
G01*
X115102337Y-90813949D01*
X115848988Y-90813949D01*
X115848988Y-90985896D01*
X115305792Y-90985896D01*
X115305792Y-91204738D01*
X115811374Y-91204738D01*
X115811374Y-91376685D01*
X115305792Y-91376685D01*
X115305792Y-91658053D01*
X115868283Y-91658053D01*
X115868283Y-91830000D01*
X115102337Y-91830000D01*
G37*
G36*
X116037543Y-91830000D02*
G01*
X116037543Y-90813949D01*
X116235380Y-90813949D01*
X116647418Y-91500516D01*
X116647418Y-90813949D01*
X116836217Y-90813949D01*
X116836217Y-91830000D01*
X116632274Y-91830000D01*
X116226343Y-91153691D01*
X116226343Y-91830000D01*
X116037543Y-91830000D01*
G37*
G36*
X116930251Y-92111367D02*
G01*
X116930251Y-91986315D01*
X117732588Y-91986315D01*
X117732588Y-92111367D01*
X116930251Y-92111367D01*
G37*
G36*
X117822714Y-90985896D02*
G01*
X117822714Y-90813949D01*
X118015910Y-90813949D01*
X118015910Y-90985896D01*
X117822714Y-90985896D01*
G37*
G36*
X117822714Y-91830000D02*
G01*
X117822714Y-91095317D01*
X118015910Y-91095317D01*
X118015910Y-91830000D01*
X117822714Y-91830000D01*
G37*
G36*
X118875157Y-91830000D02*
G01*
X118682205Y-91830000D01*
X118682205Y-91450690D01*
X118681426Y-91395797D01*
X118678689Y-91346741D01*
X118670515Y-91297160D01*
X118669748Y-91294863D01*
X118644118Y-91252156D01*
X118629692Y-91239909D01*
X118583863Y-91221915D01*
X118562770Y-91220369D01*
X118512275Y-91228297D01*
X118472644Y-91248457D01*
X118437376Y-91283280D01*
X118417934Y-91322707D01*
X118408446Y-91373153D01*
X118404710Y-91423237D01*
X118403337Y-91478169D01*
X118403279Y-91493433D01*
X118403279Y-91830000D01*
X118210327Y-91830000D01*
X118210327Y-91095317D01*
X118389602Y-91095317D01*
X118389602Y-91202540D01*
X118427148Y-91160788D01*
X118468164Y-91127675D01*
X118512649Y-91103201D01*
X118560602Y-91087364D01*
X118612025Y-91080165D01*
X118629937Y-91079685D01*
X118680076Y-91083515D01*
X118729924Y-91096204D01*
X118746685Y-91102889D01*
X118790684Y-91127432D01*
X118826796Y-91161995D01*
X118852041Y-91205478D01*
X118864410Y-91243572D01*
X118872124Y-91294856D01*
X118874894Y-91348403D01*
X118875157Y-91373998D01*
X118875157Y-91830000D01*
G37*
G36*
X164883493Y-90814319D02*
G01*
X164940966Y-90815739D01*
X164996515Y-90818741D01*
X165049731Y-90824730D01*
X165070446Y-90829092D01*
X165116977Y-90845944D01*
X165159026Y-90871218D01*
X165196593Y-90904917D01*
X165215526Y-90927278D01*
X165243744Y-90973365D01*
X165261074Y-91020202D01*
X165271107Y-91072565D01*
X165273900Y-91122916D01*
X165271234Y-91172530D01*
X165262018Y-91222218D01*
X165244276Y-91270264D01*
X165240195Y-91278255D01*
X165212374Y-91321703D01*
X165176499Y-91360168D01*
X165154710Y-91377173D01*
X165112317Y-91402354D01*
X165065941Y-91420547D01*
X165049197Y-91424801D01*
X164997338Y-91432400D01*
X164946681Y-91436453D01*
X164895669Y-91438521D01*
X164838415Y-91439211D01*
X164705792Y-91439211D01*
X164705792Y-91830000D01*
X164502337Y-91830000D01*
X164502337Y-91267264D01*
X164705792Y-91267264D01*
X164817166Y-91267264D01*
X164872274Y-91266302D01*
X164922372Y-91262921D01*
X164972499Y-91253740D01*
X164977878Y-91251877D01*
X165021689Y-91225468D01*
X165041381Y-91203028D01*
X165061111Y-91157309D01*
X165064340Y-91125847D01*
X165056280Y-91076571D01*
X165032100Y-91036699D01*
X164992951Y-91006774D01*
X164950279Y-90992735D01*
X164900007Y-90987826D01*
X164848545Y-90986223D01*
X164803977Y-90985896D01*
X164705792Y-90985896D01*
X164705792Y-91267264D01*
X164502337Y-91267264D01*
X164502337Y-90813949D01*
X164828646Y-90813949D01*
X164883493Y-90814319D01*
G37*
G36*
X165569923Y-91830000D02*
G01*
X165339113Y-91095317D01*
X165526692Y-91095317D01*
X165663468Y-91576720D01*
X165789253Y-91095317D01*
X165975366Y-91095317D01*
X166096999Y-91576720D01*
X166236217Y-91095317D01*
X166426727Y-91095317D01*
X166192254Y-91830000D01*
X166006873Y-91830000D01*
X165881088Y-91357390D01*
X165757501Y-91830000D01*
X165569923Y-91830000D01*
G37*
G36*
X166507815Y-91095317D02*
G01*
X166685868Y-91095317D01*
X166685868Y-91194968D01*
X166722960Y-91155790D01*
X166762610Y-91124718D01*
X166812103Y-91098712D01*
X166865079Y-91083738D01*
X166913258Y-91079685D01*
X166963221Y-91083567D01*
X167011456Y-91096531D01*
X167034891Y-91107285D01*
X167076432Y-91136644D01*
X167108642Y-91173617D01*
X167119399Y-91190327D01*
X167156551Y-91152546D01*
X167195832Y-91122733D01*
X167223203Y-91107285D01*
X167269658Y-91089415D01*
X167318532Y-91080656D01*
X167341905Y-91079685D01*
X167394234Y-91083582D01*
X167444672Y-91096719D01*
X167477948Y-91112658D01*
X167518518Y-91144329D01*
X167549736Y-91186158D01*
X167560990Y-91208890D01*
X167573958Y-91256586D01*
X167579434Y-91306331D01*
X167581018Y-91360809D01*
X167581018Y-91830000D01*
X167387822Y-91830000D01*
X167387822Y-91405261D01*
X167386571Y-91354840D01*
X167381485Y-91305596D01*
X167367794Y-91262379D01*
X167331305Y-91229600D01*
X167285484Y-91220369D01*
X167236617Y-91230196D01*
X167209036Y-91245526D01*
X167175179Y-91281324D01*
X167157501Y-91319532D01*
X167147380Y-91368334D01*
X167143106Y-91418547D01*
X167141870Y-91473161D01*
X167141870Y-91830000D01*
X166948918Y-91830000D01*
X166948918Y-91422602D01*
X166948277Y-91373189D01*
X166945301Y-91320949D01*
X166938660Y-91282651D01*
X166913177Y-91240959D01*
X166906664Y-91235757D01*
X166859265Y-91220745D01*
X166848046Y-91220369D01*
X166798154Y-91229066D01*
X166767690Y-91245038D01*
X166732405Y-91281705D01*
X166716399Y-91315624D01*
X166705880Y-91367656D01*
X166701973Y-91419076D01*
X166701011Y-91468764D01*
X166701011Y-91830000D01*
X166507815Y-91830000D01*
X166507815Y-91095317D01*
G37*
G36*
X167653070Y-92111367D02*
G01*
X167653070Y-91986315D01*
X168455408Y-91986315D01*
X168455408Y-92111367D01*
X167653070Y-92111367D01*
G37*
G36*
X169156385Y-91642421D02*
G01*
X169156385Y-91830000D01*
X168479588Y-91830000D01*
X168487831Y-91780235D01*
X168501570Y-91731814D01*
X168520804Y-91684736D01*
X168545533Y-91639002D01*
X168574707Y-91596648D01*
X168607880Y-91555861D01*
X168641283Y-91518711D01*
X168679922Y-91478686D01*
X168723796Y-91435788D01*
X168762665Y-91399399D01*
X168801031Y-91363597D01*
X168840552Y-91325655D01*
X168877675Y-91288314D01*
X168911184Y-91251260D01*
X168922889Y-91236001D01*
X168947149Y-91191694D01*
X168960795Y-91144159D01*
X168962700Y-91118764D01*
X168956062Y-91068428D01*
X168932217Y-91024755D01*
X168928018Y-91020334D01*
X168883723Y-90993463D01*
X168832274Y-90985896D01*
X168780962Y-90993839D01*
X168738296Y-91019820D01*
X168736043Y-91022044D01*
X168709213Y-91066452D01*
X168697255Y-91117124D01*
X168694766Y-91142212D01*
X168502302Y-91123161D01*
X168509440Y-91073772D01*
X168522744Y-91020535D01*
X168541216Y-90973875D01*
X168569301Y-90927751D01*
X168604422Y-90890580D01*
X168610013Y-90886001D01*
X168651926Y-90857926D01*
X168698163Y-90836747D01*
X168748725Y-90822463D01*
X168803610Y-90815075D01*
X168836915Y-90813949D01*
X168890544Y-90816766D01*
X168939692Y-90825215D01*
X168991365Y-90842192D01*
X169036938Y-90866835D01*
X169071144Y-90894061D01*
X169104358Y-90930885D01*
X169132328Y-90977577D01*
X169149642Y-91029185D01*
X169156052Y-91078374D01*
X169156385Y-91093119D01*
X169152950Y-91142967D01*
X169142646Y-91191030D01*
X169131960Y-91222079D01*
X169109658Y-91268733D01*
X169082214Y-91313008D01*
X169054780Y-91350307D01*
X169020502Y-91389141D01*
X168984425Y-91425480D01*
X168944896Y-91462971D01*
X168928262Y-91478290D01*
X168891500Y-91512063D01*
X168853646Y-91547655D01*
X168817659Y-91583512D01*
X168812491Y-91589176D01*
X168782176Y-91627742D01*
X168772923Y-91642421D01*
X169156385Y-91642421D01*
G37*
G36*
X164970795Y-88954842D02*
G01*
X164970795Y-88782896D01*
X165409211Y-88782896D01*
X165409211Y-89191270D01*
X165368695Y-89224594D01*
X165325090Y-89252270D01*
X165281075Y-89274984D01*
X165231591Y-89296295D01*
X165224075Y-89299225D01*
X165170922Y-89317307D01*
X165117466Y-89330948D01*
X165063705Y-89340148D01*
X165009641Y-89344906D01*
X164978611Y-89345631D01*
X164920777Y-89343287D01*
X164865794Y-89336254D01*
X164813661Y-89324534D01*
X164764379Y-89308125D01*
X164717948Y-89287027D01*
X164703105Y-89278953D01*
X164661102Y-89251939D01*
X164623203Y-89220907D01*
X164584176Y-89179624D01*
X164555170Y-89139885D01*
X164530268Y-89096127D01*
X164526517Y-89088443D01*
X164506430Y-89041151D01*
X164490499Y-88992330D01*
X164478724Y-88941981D01*
X164471105Y-88890103D01*
X164467641Y-88836697D01*
X164467411Y-88818555D01*
X164469729Y-88760449D01*
X164476684Y-88704833D01*
X164488276Y-88651708D01*
X164504505Y-88601072D01*
X164525370Y-88552927D01*
X164533356Y-88537431D01*
X164560232Y-88493287D01*
X164591402Y-88453179D01*
X164626865Y-88417107D01*
X164666621Y-88385070D01*
X164710671Y-88357069D01*
X164726308Y-88348632D01*
X164777736Y-88326619D01*
X164827570Y-88312518D01*
X164881914Y-88303231D01*
X164932086Y-88299104D01*
X164967376Y-88298318D01*
X165023984Y-88300345D01*
X165076574Y-88306427D01*
X165125145Y-88316564D01*
X165178125Y-88334081D01*
X165225317Y-88357437D01*
X165260223Y-88381360D01*
X165297145Y-88414734D01*
X165328779Y-88452572D01*
X165355123Y-88494876D01*
X165376177Y-88541645D01*
X165391942Y-88592878D01*
X165396022Y-88610949D01*
X165194033Y-88642212D01*
X165177079Y-88595715D01*
X165149945Y-88552117D01*
X165113921Y-88516427D01*
X165070158Y-88490145D01*
X165019468Y-88474773D01*
X164967376Y-88470265D01*
X164911650Y-88474367D01*
X164861161Y-88486674D01*
X164815907Y-88507185D01*
X164775889Y-88535901D01*
X164755373Y-88555994D01*
X164724728Y-88597379D01*
X164701611Y-88646735D01*
X164687786Y-88695384D01*
X164679492Y-88749889D01*
X164676803Y-88799784D01*
X164676727Y-88810251D01*
X164678671Y-88864819D01*
X164684502Y-88914951D01*
X164696632Y-88969253D01*
X164714361Y-89017166D01*
X164742120Y-89064991D01*
X164756350Y-89082826D01*
X164793653Y-89118229D01*
X164835677Y-89144936D01*
X164882423Y-89162948D01*
X164933891Y-89172264D01*
X164965422Y-89173684D01*
X165017297Y-89169452D01*
X165065325Y-89158031D01*
X165093405Y-89148039D01*
X165139040Y-89127259D01*
X165182742Y-89101259D01*
X165203803Y-89085757D01*
X165203803Y-88954842D01*
X164970795Y-88954842D01*
G37*
G36*
X165592882Y-89330000D02*
G01*
X165592882Y-88313949D01*
X165790718Y-88313949D01*
X166202756Y-89000516D01*
X166202756Y-88313949D01*
X166391556Y-88313949D01*
X166391556Y-89330000D01*
X166187613Y-89330000D01*
X165781681Y-88653691D01*
X165781681Y-89330000D01*
X165592882Y-89330000D01*
G37*
G36*
X167024044Y-88314873D02*
G01*
X167076652Y-88318189D01*
X167126895Y-88324803D01*
X167163607Y-88333244D01*
X167211351Y-88351328D01*
X167255115Y-88375903D01*
X167294900Y-88406970D01*
X167315282Y-88427034D01*
X167348470Y-88467211D01*
X167376866Y-88512179D01*
X167400470Y-88561939D01*
X167411514Y-88591653D01*
X167425939Y-88643112D01*
X167435181Y-88692822D01*
X167441267Y-88746903D01*
X167443971Y-88796737D01*
X167444487Y-88831744D01*
X167443002Y-88884913D01*
X167438549Y-88934787D01*
X167429825Y-88987749D01*
X167417224Y-89036407D01*
X167413468Y-89047899D01*
X167395457Y-89094390D01*
X167371068Y-89142571D01*
X167342617Y-89185470D01*
X167310106Y-89223087D01*
X167305757Y-89227418D01*
X167264961Y-89260471D01*
X167220310Y-89285811D01*
X167173966Y-89304783D01*
X167162875Y-89308506D01*
X167111190Y-89320743D01*
X167060960Y-89326977D01*
X167010311Y-89329664D01*
X166982868Y-89330000D01*
X166600139Y-89330000D01*
X166600139Y-89158053D01*
X166803593Y-89158053D01*
X166955268Y-89158053D01*
X167008272Y-89156898D01*
X167059536Y-89152090D01*
X167078367Y-89148283D01*
X167126031Y-89130223D01*
X167160188Y-89106273D01*
X167189863Y-89066889D01*
X167209479Y-89020772D01*
X167213433Y-89008332D01*
X167225253Y-88955485D01*
X167231274Y-88903574D01*
X167233869Y-88850879D01*
X167234193Y-88822219D01*
X167232896Y-88766882D01*
X167228334Y-88712767D01*
X167219414Y-88662745D01*
X167213433Y-88641723D01*
X167194022Y-88595119D01*
X167164813Y-88552765D01*
X167155792Y-88543538D01*
X167113843Y-88513862D01*
X167065310Y-88496467D01*
X167061758Y-88495666D01*
X167008911Y-88488987D01*
X166958398Y-88486669D01*
X166902630Y-88485906D01*
X166894940Y-88485896D01*
X166803593Y-88485896D01*
X166803593Y-89158053D01*
X166600139Y-89158053D01*
X166600139Y-88313949D01*
X166971877Y-88313949D01*
X167024044Y-88314873D01*
G37*
G36*
X167495778Y-89611367D02*
G01*
X167495778Y-89486315D01*
X168298115Y-89486315D01*
X168298115Y-89611367D01*
X167495778Y-89611367D01*
G37*
G36*
X168999092Y-89142421D02*
G01*
X168999092Y-89330000D01*
X168322295Y-89330000D01*
X168330539Y-89280235D01*
X168344277Y-89231814D01*
X168363511Y-89184736D01*
X168388241Y-89139002D01*
X168417414Y-89096648D01*
X168450588Y-89055861D01*
X168483991Y-89018711D01*
X168522630Y-88978686D01*
X168566504Y-88935788D01*
X168605373Y-88899399D01*
X168643739Y-88863597D01*
X168683260Y-88825655D01*
X168720383Y-88788314D01*
X168753892Y-88751260D01*
X168765596Y-88736001D01*
X168789856Y-88691694D01*
X168803503Y-88644159D01*
X168805408Y-88618764D01*
X168798769Y-88568428D01*
X168774925Y-88524755D01*
X168770725Y-88520334D01*
X168726430Y-88493463D01*
X168674982Y-88485896D01*
X168623670Y-88493839D01*
X168581003Y-88519820D01*
X168578750Y-88522044D01*
X168551921Y-88566452D01*
X168539962Y-88617124D01*
X168537473Y-88642212D01*
X168345010Y-88623161D01*
X168352148Y-88573772D01*
X168365451Y-88520535D01*
X168383924Y-88473875D01*
X168412009Y-88427751D01*
X168447129Y-88390580D01*
X168452721Y-88386001D01*
X168494634Y-88357926D01*
X168540871Y-88336747D01*
X168591432Y-88322463D01*
X168646318Y-88315075D01*
X168679623Y-88313949D01*
X168733252Y-88316766D01*
X168782399Y-88325215D01*
X168834073Y-88342192D01*
X168879645Y-88366835D01*
X168913852Y-88394061D01*
X168947065Y-88430885D01*
X168975035Y-88477577D01*
X168992350Y-88529185D01*
X168998759Y-88578374D01*
X168999092Y-88593119D01*
X168995658Y-88642967D01*
X168985354Y-88691030D01*
X168974668Y-88722079D01*
X168952366Y-88768733D01*
X168924922Y-88813008D01*
X168897487Y-88850307D01*
X168863209Y-88889141D01*
X168827132Y-88925480D01*
X168787603Y-88962971D01*
X168770969Y-88978290D01*
X168734208Y-89012063D01*
X168696353Y-89047655D01*
X168660366Y-89083512D01*
X168655198Y-89089176D01*
X168624883Y-89127742D01*
X168615631Y-89142421D01*
X168999092Y-89142421D01*
G37*
G36*
X115053000Y-89041549D02*
G01*
X115239846Y-89017369D01*
X115249609Y-89065377D01*
X115270300Y-89111250D01*
X115287962Y-89133628D01*
X115328248Y-89162379D01*
X115375832Y-89173528D01*
X115382728Y-89173684D01*
X115431274Y-89164942D01*
X115472621Y-89138715D01*
X115483112Y-89128011D01*
X115509679Y-89085620D01*
X115522181Y-89037117D01*
X115524145Y-89004668D01*
X115518615Y-88953972D01*
X115500144Y-88908664D01*
X115484822Y-88888408D01*
X115444428Y-88857554D01*
X115396522Y-88845590D01*
X115389567Y-88845422D01*
X115340401Y-88850502D01*
X115300907Y-88859832D01*
X115322156Y-88704738D01*
X115371641Y-88701983D01*
X115418739Y-88688160D01*
X115441591Y-88673963D01*
X115472548Y-88635861D01*
X115482868Y-88587013D01*
X115472191Y-88538826D01*
X115452581Y-88513496D01*
X115407110Y-88489777D01*
X115372226Y-88485896D01*
X115323803Y-88494926D01*
X115287718Y-88517892D01*
X115258328Y-88559969D01*
X115245219Y-88610949D01*
X115067411Y-88582861D01*
X115079340Y-88533354D01*
X115096084Y-88485326D01*
X115118744Y-88440980D01*
X115123342Y-88433872D01*
X115155525Y-88395290D01*
X115196020Y-88363439D01*
X115227634Y-88345945D01*
X115275687Y-88327729D01*
X115327492Y-88317074D01*
X115377843Y-88313949D01*
X115429166Y-88317066D01*
X115484028Y-88328582D01*
X115533491Y-88348582D01*
X115577554Y-88377068D01*
X115605722Y-88402609D01*
X115639961Y-88444920D01*
X115662995Y-88490245D01*
X115674823Y-88538584D01*
X115676552Y-88566741D01*
X115669622Y-88620968D01*
X115648830Y-88670171D01*
X115614177Y-88714347D01*
X115573441Y-88748213D01*
X115531716Y-88773614D01*
X115582368Y-88790125D01*
X115626246Y-88815842D01*
X115663350Y-88850765D01*
X115669958Y-88858855D01*
X115697392Y-88902766D01*
X115714666Y-88952068D01*
X115721524Y-89001049D01*
X115721981Y-89018346D01*
X115718572Y-89067862D01*
X115705978Y-89122072D01*
X115684105Y-89172448D01*
X115652951Y-89218990D01*
X115625017Y-89249888D01*
X115587072Y-89282426D01*
X115538571Y-89311878D01*
X115485512Y-89332167D01*
X115436405Y-89342265D01*
X115383949Y-89345631D01*
X115334381Y-89342677D01*
X115280676Y-89331765D01*
X115231412Y-89312811D01*
X115186589Y-89285816D01*
X115157292Y-89261612D01*
X115121580Y-89222280D01*
X115093091Y-89178017D01*
X115071825Y-89128821D01*
X115057782Y-89074693D01*
X115053000Y-89041549D01*
G37*
G36*
X115879518Y-89330000D02*
G01*
X115879518Y-89142421D01*
X116072714Y-89142421D01*
X116072714Y-89330000D01*
X115879518Y-89330000D01*
G37*
G36*
X116220481Y-89041549D02*
G01*
X116407327Y-89017369D01*
X116417090Y-89065377D01*
X116437781Y-89111250D01*
X116455443Y-89133628D01*
X116495728Y-89162379D01*
X116543313Y-89173528D01*
X116550209Y-89173684D01*
X116598755Y-89164942D01*
X116640102Y-89138715D01*
X116650593Y-89128011D01*
X116677160Y-89085620D01*
X116689662Y-89037117D01*
X116691625Y-89004668D01*
X116686096Y-88953972D01*
X116667625Y-88908664D01*
X116652302Y-88888408D01*
X116611909Y-88857554D01*
X116564003Y-88845590D01*
X116557048Y-88845422D01*
X116507882Y-88850502D01*
X116468387Y-88859832D01*
X116489637Y-88704738D01*
X116539122Y-88701983D01*
X116586219Y-88688160D01*
X116609071Y-88673963D01*
X116640029Y-88635861D01*
X116650348Y-88587013D01*
X116639671Y-88538826D01*
X116620062Y-88513496D01*
X116574591Y-88489777D01*
X116539706Y-88485896D01*
X116491284Y-88494926D01*
X116455198Y-88517892D01*
X116425809Y-88559969D01*
X116412700Y-88610949D01*
X116234891Y-88582861D01*
X116246820Y-88533354D01*
X116263564Y-88485326D01*
X116286225Y-88440980D01*
X116290823Y-88433872D01*
X116323006Y-88395290D01*
X116363500Y-88363439D01*
X116395115Y-88345945D01*
X116443168Y-88327729D01*
X116494973Y-88317074D01*
X116545324Y-88313949D01*
X116596646Y-88317066D01*
X116651509Y-88328582D01*
X116700972Y-88348582D01*
X116745035Y-88377068D01*
X116773203Y-88402609D01*
X116807442Y-88444920D01*
X116830476Y-88490245D01*
X116842304Y-88538584D01*
X116844033Y-88566741D01*
X116837102Y-88620968D01*
X116816310Y-88670171D01*
X116781657Y-88714347D01*
X116740922Y-88748213D01*
X116699197Y-88773614D01*
X116749849Y-88790125D01*
X116793727Y-88815842D01*
X116830831Y-88850765D01*
X116837438Y-88858855D01*
X116864873Y-88902766D01*
X116882146Y-88952068D01*
X116889005Y-89001049D01*
X116889462Y-89018346D01*
X116886053Y-89067862D01*
X116873459Y-89122072D01*
X116851585Y-89172448D01*
X116820432Y-89218990D01*
X116792498Y-89249888D01*
X116754553Y-89282426D01*
X116706052Y-89311878D01*
X116652993Y-89332167D01*
X116603886Y-89342265D01*
X116551430Y-89345631D01*
X116501862Y-89342677D01*
X116448157Y-89331765D01*
X116398893Y-89312811D01*
X116354070Y-89285816D01*
X116324773Y-89261612D01*
X116289061Y-89222280D01*
X116260572Y-89178017D01*
X116239306Y-89128821D01*
X116225263Y-89074693D01*
X116220481Y-89041549D01*
G37*
G36*
X117305408Y-89330000D02*
G01*
X116945394Y-88313949D01*
X117165945Y-88313949D01*
X117420690Y-89064263D01*
X117667376Y-88313949D01*
X117883042Y-88313949D01*
X117522540Y-89330000D01*
X117305408Y-89330000D01*
G37*
D11*
X121586666Y-80944819D02*
X121586666Y-81659104D01*
X121586666Y-81659104D02*
X121539047Y-81801961D01*
X121539047Y-81801961D02*
X121443809Y-81897200D01*
X121443809Y-81897200D02*
X121300952Y-81944819D01*
X121300952Y-81944819D02*
X121205714Y-81944819D01*
X122015238Y-81040057D02*
X122062857Y-80992438D01*
X122062857Y-80992438D02*
X122158095Y-80944819D01*
X122158095Y-80944819D02*
X122396190Y-80944819D01*
X122396190Y-80944819D02*
X122491428Y-80992438D01*
X122491428Y-80992438D02*
X122539047Y-81040057D01*
X122539047Y-81040057D02*
X122586666Y-81135295D01*
X122586666Y-81135295D02*
X122586666Y-81230533D01*
X122586666Y-81230533D02*
X122539047Y-81373390D01*
X122539047Y-81373390D02*
X121967619Y-81944819D01*
X121967619Y-81944819D02*
X122586666Y-81944819D01*
X123914819Y-87963333D02*
X124629104Y-87963333D01*
X124629104Y-87963333D02*
X124771961Y-88010952D01*
X124771961Y-88010952D02*
X124867200Y-88106190D01*
X124867200Y-88106190D02*
X124914819Y-88249047D01*
X124914819Y-88249047D02*
X124914819Y-88344285D01*
X124010057Y-87534761D02*
X123962438Y-87487142D01*
X123962438Y-87487142D02*
X123914819Y-87391904D01*
X123914819Y-87391904D02*
X123914819Y-87153809D01*
X123914819Y-87153809D02*
X123962438Y-87058571D01*
X123962438Y-87058571D02*
X124010057Y-87010952D01*
X124010057Y-87010952D02*
X124105295Y-86963333D01*
X124105295Y-86963333D02*
X124200533Y-86963333D01*
X124200533Y-86963333D02*
X124343390Y-87010952D01*
X124343390Y-87010952D02*
X124914819Y-87582380D01*
X124914819Y-87582380D02*
X124914819Y-86963333D01*
X157313333Y-84274819D02*
X156980000Y-83798628D01*
X156741905Y-84274819D02*
X156741905Y-83274819D01*
X156741905Y-83274819D02*
X157122857Y-83274819D01*
X157122857Y-83274819D02*
X157218095Y-83322438D01*
X157218095Y-83322438D02*
X157265714Y-83370057D01*
X157265714Y-83370057D02*
X157313333Y-83465295D01*
X157313333Y-83465295D02*
X157313333Y-83608152D01*
X157313333Y-83608152D02*
X157265714Y-83703390D01*
X157265714Y-83703390D02*
X157218095Y-83751009D01*
X157218095Y-83751009D02*
X157122857Y-83798628D01*
X157122857Y-83798628D02*
X156741905Y-83798628D01*
X158170476Y-83274819D02*
X157980000Y-83274819D01*
X157980000Y-83274819D02*
X157884762Y-83322438D01*
X157884762Y-83322438D02*
X157837143Y-83370057D01*
X157837143Y-83370057D02*
X157741905Y-83512914D01*
X157741905Y-83512914D02*
X157694286Y-83703390D01*
X157694286Y-83703390D02*
X157694286Y-84084342D01*
X157694286Y-84084342D02*
X157741905Y-84179580D01*
X157741905Y-84179580D02*
X157789524Y-84227200D01*
X157789524Y-84227200D02*
X157884762Y-84274819D01*
X157884762Y-84274819D02*
X158075238Y-84274819D01*
X158075238Y-84274819D02*
X158170476Y-84227200D01*
X158170476Y-84227200D02*
X158218095Y-84179580D01*
X158218095Y-84179580D02*
X158265714Y-84084342D01*
X158265714Y-84084342D02*
X158265714Y-83846247D01*
X158265714Y-83846247D02*
X158218095Y-83751009D01*
X158218095Y-83751009D02*
X158170476Y-83703390D01*
X158170476Y-83703390D02*
X158075238Y-83655771D01*
X158075238Y-83655771D02*
X157884762Y-83655771D01*
X157884762Y-83655771D02*
X157789524Y-83703390D01*
X157789524Y-83703390D02*
X157741905Y-83751009D01*
X157741905Y-83751009D02*
X157694286Y-83846247D01*
X155956190Y-81734819D02*
X155622857Y-81258628D01*
X155384762Y-81734819D02*
X155384762Y-80734819D01*
X155384762Y-80734819D02*
X155765714Y-80734819D01*
X155765714Y-80734819D02*
X155860952Y-80782438D01*
X155860952Y-80782438D02*
X155908571Y-80830057D01*
X155908571Y-80830057D02*
X155956190Y-80925295D01*
X155956190Y-80925295D02*
X155956190Y-81068152D01*
X155956190Y-81068152D02*
X155908571Y-81163390D01*
X155908571Y-81163390D02*
X155860952Y-81211009D01*
X155860952Y-81211009D02*
X155765714Y-81258628D01*
X155765714Y-81258628D02*
X155384762Y-81258628D01*
X157146667Y-81734819D02*
X157146667Y-80734819D01*
X157718095Y-81734819D02*
X157289524Y-81163390D01*
X157718095Y-80734819D02*
X157146667Y-81306247D01*
X158670476Y-81734819D02*
X158099048Y-81734819D01*
X158384762Y-81734819D02*
X158384762Y-80734819D01*
X158384762Y-80734819D02*
X158289524Y-80877676D01*
X158289524Y-80877676D02*
X158194286Y-80972914D01*
X158194286Y-80972914D02*
X158099048Y-81020533D01*
X159289524Y-80734819D02*
X159384762Y-80734819D01*
X159384762Y-80734819D02*
X159480000Y-80782438D01*
X159480000Y-80782438D02*
X159527619Y-80830057D01*
X159527619Y-80830057D02*
X159575238Y-80925295D01*
X159575238Y-80925295D02*
X159622857Y-81115771D01*
X159622857Y-81115771D02*
X159622857Y-81353866D01*
X159622857Y-81353866D02*
X159575238Y-81544342D01*
X159575238Y-81544342D02*
X159527619Y-81639580D01*
X159527619Y-81639580D02*
X159480000Y-81687200D01*
X159480000Y-81687200D02*
X159384762Y-81734819D01*
X159384762Y-81734819D02*
X159289524Y-81734819D01*
X159289524Y-81734819D02*
X159194286Y-81687200D01*
X159194286Y-81687200D02*
X159146667Y-81639580D01*
X159146667Y-81639580D02*
X159099048Y-81544342D01*
X159099048Y-81544342D02*
X159051429Y-81353866D01*
X159051429Y-81353866D02*
X159051429Y-81115771D01*
X159051429Y-81115771D02*
X159099048Y-80925295D01*
X159099048Y-80925295D02*
X159146667Y-80830057D01*
X159146667Y-80830057D02*
X159194286Y-80782438D01*
X159194286Y-80782438D02*
X159289524Y-80734819D01*
X157313333Y-79194819D02*
X156980000Y-78718628D01*
X156741905Y-79194819D02*
X156741905Y-78194819D01*
X156741905Y-78194819D02*
X157122857Y-78194819D01*
X157122857Y-78194819D02*
X157218095Y-78242438D01*
X157218095Y-78242438D02*
X157265714Y-78290057D01*
X157265714Y-78290057D02*
X157313333Y-78385295D01*
X157313333Y-78385295D02*
X157313333Y-78528152D01*
X157313333Y-78528152D02*
X157265714Y-78623390D01*
X157265714Y-78623390D02*
X157218095Y-78671009D01*
X157218095Y-78671009D02*
X157122857Y-78718628D01*
X157122857Y-78718628D02*
X156741905Y-78718628D01*
X157646667Y-78194819D02*
X158313333Y-78194819D01*
X158313333Y-78194819D02*
X157884762Y-79194819D01*
X156456190Y-76654819D02*
X156122857Y-76178628D01*
X155884762Y-76654819D02*
X155884762Y-75654819D01*
X155884762Y-75654819D02*
X156265714Y-75654819D01*
X156265714Y-75654819D02*
X156360952Y-75702438D01*
X156360952Y-75702438D02*
X156408571Y-75750057D01*
X156408571Y-75750057D02*
X156456190Y-75845295D01*
X156456190Y-75845295D02*
X156456190Y-75988152D01*
X156456190Y-75988152D02*
X156408571Y-76083390D01*
X156408571Y-76083390D02*
X156360952Y-76131009D01*
X156360952Y-76131009D02*
X156265714Y-76178628D01*
X156265714Y-76178628D02*
X155884762Y-76178628D01*
X158170476Y-76654819D02*
X157599048Y-76654819D01*
X157884762Y-76654819D02*
X157884762Y-75654819D01*
X157884762Y-75654819D02*
X157789524Y-75797676D01*
X157789524Y-75797676D02*
X157694286Y-75892914D01*
X157694286Y-75892914D02*
X157599048Y-75940533D01*
X158789524Y-75654819D02*
X158884762Y-75654819D01*
X158884762Y-75654819D02*
X158980000Y-75702438D01*
X158980000Y-75702438D02*
X159027619Y-75750057D01*
X159027619Y-75750057D02*
X159075238Y-75845295D01*
X159075238Y-75845295D02*
X159122857Y-76035771D01*
X159122857Y-76035771D02*
X159122857Y-76273866D01*
X159122857Y-76273866D02*
X159075238Y-76464342D01*
X159075238Y-76464342D02*
X159027619Y-76559580D01*
X159027619Y-76559580D02*
X158980000Y-76607200D01*
X158980000Y-76607200D02*
X158884762Y-76654819D01*
X158884762Y-76654819D02*
X158789524Y-76654819D01*
X158789524Y-76654819D02*
X158694286Y-76607200D01*
X158694286Y-76607200D02*
X158646667Y-76559580D01*
X158646667Y-76559580D02*
X158599048Y-76464342D01*
X158599048Y-76464342D02*
X158551429Y-76273866D01*
X158551429Y-76273866D02*
X158551429Y-76035771D01*
X158551429Y-76035771D02*
X158599048Y-75845295D01*
X158599048Y-75845295D02*
X158646667Y-75750057D01*
X158646667Y-75750057D02*
X158694286Y-75702438D01*
X158694286Y-75702438D02*
X158789524Y-75654819D01*
X158620057Y-87725238D02*
X158572438Y-87820476D01*
X158572438Y-87820476D02*
X158477200Y-87915714D01*
X158477200Y-87915714D02*
X158334342Y-88058571D01*
X158334342Y-88058571D02*
X158286723Y-88153809D01*
X158286723Y-88153809D02*
X158286723Y-88249047D01*
X158524819Y-88201428D02*
X158477200Y-88296666D01*
X158477200Y-88296666D02*
X158381961Y-88391904D01*
X158381961Y-88391904D02*
X158191485Y-88439523D01*
X158191485Y-88439523D02*
X157858152Y-88439523D01*
X157858152Y-88439523D02*
X157667676Y-88391904D01*
X157667676Y-88391904D02*
X157572438Y-88296666D01*
X157572438Y-88296666D02*
X157524819Y-88201428D01*
X157524819Y-88201428D02*
X157524819Y-88010952D01*
X157524819Y-88010952D02*
X157572438Y-87915714D01*
X157572438Y-87915714D02*
X157667676Y-87820476D01*
X157667676Y-87820476D02*
X157858152Y-87772857D01*
X157858152Y-87772857D02*
X158191485Y-87772857D01*
X158191485Y-87772857D02*
X158381961Y-87820476D01*
X158381961Y-87820476D02*
X158477200Y-87915714D01*
X158477200Y-87915714D02*
X158524819Y-88010952D01*
X158524819Y-88010952D02*
X158524819Y-88201428D01*
X158524819Y-86820476D02*
X158524819Y-87391904D01*
X158524819Y-87106190D02*
X157524819Y-87106190D01*
X157524819Y-87106190D02*
X157667676Y-87201428D01*
X157667676Y-87201428D02*
X157762914Y-87296666D01*
X157762914Y-87296666D02*
X157810533Y-87391904D01*
X143128095Y-74074819D02*
X143128095Y-74884342D01*
X143128095Y-74884342D02*
X143175714Y-74979580D01*
X143175714Y-74979580D02*
X143223333Y-75027200D01*
X143223333Y-75027200D02*
X143318571Y-75074819D01*
X143318571Y-75074819D02*
X143509047Y-75074819D01*
X143509047Y-75074819D02*
X143604285Y-75027200D01*
X143604285Y-75027200D02*
X143651904Y-74979580D01*
X143651904Y-74979580D02*
X143699523Y-74884342D01*
X143699523Y-74884342D02*
X143699523Y-74074819D01*
X144699523Y-75074819D02*
X144128095Y-75074819D01*
X144413809Y-75074819D02*
X144413809Y-74074819D01*
X144413809Y-74074819D02*
X144318571Y-74217676D01*
X144318571Y-74217676D02*
X144223333Y-74312914D01*
X144223333Y-74312914D02*
X144128095Y-74360533D01*
X142604285Y-81068152D02*
X142604285Y-81734819D01*
X142366190Y-80687200D02*
X142128095Y-81401485D01*
X142128095Y-81401485D02*
X142747142Y-81401485D01*
X143128095Y-81734819D02*
X143128095Y-80734819D01*
X143128095Y-80734819D02*
X143699523Y-81734819D01*
X143699523Y-81734819D02*
X143699523Y-80734819D01*
X144080476Y-80734819D02*
X144699523Y-80734819D01*
X144699523Y-80734819D02*
X144366190Y-81115771D01*
X144366190Y-81115771D02*
X144509047Y-81115771D01*
X144509047Y-81115771D02*
X144604285Y-81163390D01*
X144604285Y-81163390D02*
X144651904Y-81211009D01*
X144651904Y-81211009D02*
X144699523Y-81306247D01*
X144699523Y-81306247D02*
X144699523Y-81544342D01*
X144699523Y-81544342D02*
X144651904Y-81639580D01*
X144651904Y-81639580D02*
X144604285Y-81687200D01*
X144604285Y-81687200D02*
X144509047Y-81734819D01*
X144509047Y-81734819D02*
X144223333Y-81734819D01*
X144223333Y-81734819D02*
X144128095Y-81687200D01*
X144128095Y-81687200D02*
X144080476Y-81639580D01*
X145604285Y-80734819D02*
X145128095Y-80734819D01*
X145128095Y-80734819D02*
X145080476Y-81211009D01*
X145080476Y-81211009D02*
X145128095Y-81163390D01*
X145128095Y-81163390D02*
X145223333Y-81115771D01*
X145223333Y-81115771D02*
X145461428Y-81115771D01*
X145461428Y-81115771D02*
X145556666Y-81163390D01*
X145556666Y-81163390D02*
X145604285Y-81211009D01*
X145604285Y-81211009D02*
X145651904Y-81306247D01*
X145651904Y-81306247D02*
X145651904Y-81544342D01*
X145651904Y-81544342D02*
X145604285Y-81639580D01*
X145604285Y-81639580D02*
X145556666Y-81687200D01*
X145556666Y-81687200D02*
X145461428Y-81734819D01*
X145461428Y-81734819D02*
X145223333Y-81734819D01*
X145223333Y-81734819D02*
X145128095Y-81687200D01*
X145128095Y-81687200D02*
X145080476Y-81639580D01*
X129373333Y-79194819D02*
X129040000Y-78718628D01*
X128801905Y-79194819D02*
X128801905Y-78194819D01*
X128801905Y-78194819D02*
X129182857Y-78194819D01*
X129182857Y-78194819D02*
X129278095Y-78242438D01*
X129278095Y-78242438D02*
X129325714Y-78290057D01*
X129325714Y-78290057D02*
X129373333Y-78385295D01*
X129373333Y-78385295D02*
X129373333Y-78528152D01*
X129373333Y-78528152D02*
X129325714Y-78623390D01*
X129325714Y-78623390D02*
X129278095Y-78671009D01*
X129278095Y-78671009D02*
X129182857Y-78718628D01*
X129182857Y-78718628D02*
X128801905Y-78718628D01*
X129754286Y-78290057D02*
X129801905Y-78242438D01*
X129801905Y-78242438D02*
X129897143Y-78194819D01*
X129897143Y-78194819D02*
X130135238Y-78194819D01*
X130135238Y-78194819D02*
X130230476Y-78242438D01*
X130230476Y-78242438D02*
X130278095Y-78290057D01*
X130278095Y-78290057D02*
X130325714Y-78385295D01*
X130325714Y-78385295D02*
X130325714Y-78480533D01*
X130325714Y-78480533D02*
X130278095Y-78623390D01*
X130278095Y-78623390D02*
X129706667Y-79194819D01*
X129706667Y-79194819D02*
X130325714Y-79194819D01*
X130579999Y-76654819D02*
X130246666Y-76178628D01*
X130008571Y-76654819D02*
X130008571Y-75654819D01*
X130008571Y-75654819D02*
X130389523Y-75654819D01*
X130389523Y-75654819D02*
X130484761Y-75702438D01*
X130484761Y-75702438D02*
X130532380Y-75750057D01*
X130532380Y-75750057D02*
X130579999Y-75845295D01*
X130579999Y-75845295D02*
X130579999Y-75988152D01*
X130579999Y-75988152D02*
X130532380Y-76083390D01*
X130532380Y-76083390D02*
X130484761Y-76131009D01*
X130484761Y-76131009D02*
X130389523Y-76178628D01*
X130389523Y-76178628D02*
X130008571Y-76178628D01*
X131722857Y-75750057D02*
X131770476Y-75702438D01*
X131770476Y-75702438D02*
X131865714Y-75654819D01*
X131865714Y-75654819D02*
X132103809Y-75654819D01*
X132103809Y-75654819D02*
X132199047Y-75702438D01*
X132199047Y-75702438D02*
X132246666Y-75750057D01*
X132246666Y-75750057D02*
X132294285Y-75845295D01*
X132294285Y-75845295D02*
X132294285Y-75940533D01*
X132294285Y-75940533D02*
X132246666Y-76083390D01*
X132246666Y-76083390D02*
X131675238Y-76654819D01*
X131675238Y-76654819D02*
X132294285Y-76654819D01*
X132675238Y-75750057D02*
X132722857Y-75702438D01*
X132722857Y-75702438D02*
X132818095Y-75654819D01*
X132818095Y-75654819D02*
X133056190Y-75654819D01*
X133056190Y-75654819D02*
X133151428Y-75702438D01*
X133151428Y-75702438D02*
X133199047Y-75750057D01*
X133199047Y-75750057D02*
X133246666Y-75845295D01*
X133246666Y-75845295D02*
X133246666Y-75940533D01*
X133246666Y-75940533D02*
X133199047Y-76083390D01*
X133199047Y-76083390D02*
X132627619Y-76654819D01*
X132627619Y-76654819D02*
X133246666Y-76654819D01*
X133865714Y-75654819D02*
X133960952Y-75654819D01*
X133960952Y-75654819D02*
X134056190Y-75702438D01*
X134056190Y-75702438D02*
X134103809Y-75750057D01*
X134103809Y-75750057D02*
X134151428Y-75845295D01*
X134151428Y-75845295D02*
X134199047Y-76035771D01*
X134199047Y-76035771D02*
X134199047Y-76273866D01*
X134199047Y-76273866D02*
X134151428Y-76464342D01*
X134151428Y-76464342D02*
X134103809Y-76559580D01*
X134103809Y-76559580D02*
X134056190Y-76607200D01*
X134056190Y-76607200D02*
X133960952Y-76654819D01*
X133960952Y-76654819D02*
X133865714Y-76654819D01*
X133865714Y-76654819D02*
X133770476Y-76607200D01*
X133770476Y-76607200D02*
X133722857Y-76559580D01*
X133722857Y-76559580D02*
X133675238Y-76464342D01*
X133675238Y-76464342D02*
X133627619Y-76273866D01*
X133627619Y-76273866D02*
X133627619Y-76035771D01*
X133627619Y-76035771D02*
X133675238Y-75845295D01*
X133675238Y-75845295D02*
X133722857Y-75750057D01*
X133722857Y-75750057D02*
X133770476Y-75702438D01*
X133770476Y-75702438D02*
X133865714Y-75654819D01*
X162226666Y-83484819D02*
X162226666Y-84199104D01*
X162226666Y-84199104D02*
X162179047Y-84341961D01*
X162179047Y-84341961D02*
X162083809Y-84437200D01*
X162083809Y-84437200D02*
X161940952Y-84484819D01*
X161940952Y-84484819D02*
X161845714Y-84484819D01*
X163226666Y-84484819D02*
X162655238Y-84484819D01*
X162940952Y-84484819D02*
X162940952Y-83484819D01*
X162940952Y-83484819D02*
X162845714Y-83627676D01*
X162845714Y-83627676D02*
X162750476Y-83722914D01*
X162750476Y-83722914D02*
X162655238Y-83770533D01*
X129373333Y-91894819D02*
X129040000Y-91418628D01*
X128801905Y-91894819D02*
X128801905Y-90894819D01*
X128801905Y-90894819D02*
X129182857Y-90894819D01*
X129182857Y-90894819D02*
X129278095Y-90942438D01*
X129278095Y-90942438D02*
X129325714Y-90990057D01*
X129325714Y-90990057D02*
X129373333Y-91085295D01*
X129373333Y-91085295D02*
X129373333Y-91228152D01*
X129373333Y-91228152D02*
X129325714Y-91323390D01*
X129325714Y-91323390D02*
X129278095Y-91371009D01*
X129278095Y-91371009D02*
X129182857Y-91418628D01*
X129182857Y-91418628D02*
X128801905Y-91418628D01*
X130230476Y-91228152D02*
X130230476Y-91894819D01*
X129992381Y-90847200D02*
X129754286Y-91561485D01*
X129754286Y-91561485D02*
X130373333Y-91561485D01*
X130579999Y-89354819D02*
X130246666Y-88878628D01*
X130008571Y-89354819D02*
X130008571Y-88354819D01*
X130008571Y-88354819D02*
X130389523Y-88354819D01*
X130389523Y-88354819D02*
X130484761Y-88402438D01*
X130484761Y-88402438D02*
X130532380Y-88450057D01*
X130532380Y-88450057D02*
X130579999Y-88545295D01*
X130579999Y-88545295D02*
X130579999Y-88688152D01*
X130579999Y-88688152D02*
X130532380Y-88783390D01*
X130532380Y-88783390D02*
X130484761Y-88831009D01*
X130484761Y-88831009D02*
X130389523Y-88878628D01*
X130389523Y-88878628D02*
X130008571Y-88878628D01*
X131722857Y-88450057D02*
X131770476Y-88402438D01*
X131770476Y-88402438D02*
X131865714Y-88354819D01*
X131865714Y-88354819D02*
X132103809Y-88354819D01*
X132103809Y-88354819D02*
X132199047Y-88402438D01*
X132199047Y-88402438D02*
X132246666Y-88450057D01*
X132246666Y-88450057D02*
X132294285Y-88545295D01*
X132294285Y-88545295D02*
X132294285Y-88640533D01*
X132294285Y-88640533D02*
X132246666Y-88783390D01*
X132246666Y-88783390D02*
X131675238Y-89354819D01*
X131675238Y-89354819D02*
X132294285Y-89354819D01*
X132913333Y-88354819D02*
X133008571Y-88354819D01*
X133008571Y-88354819D02*
X133103809Y-88402438D01*
X133103809Y-88402438D02*
X133151428Y-88450057D01*
X133151428Y-88450057D02*
X133199047Y-88545295D01*
X133199047Y-88545295D02*
X133246666Y-88735771D01*
X133246666Y-88735771D02*
X133246666Y-88973866D01*
X133246666Y-88973866D02*
X133199047Y-89164342D01*
X133199047Y-89164342D02*
X133151428Y-89259580D01*
X133151428Y-89259580D02*
X133103809Y-89307200D01*
X133103809Y-89307200D02*
X133008571Y-89354819D01*
X133008571Y-89354819D02*
X132913333Y-89354819D01*
X132913333Y-89354819D02*
X132818095Y-89307200D01*
X132818095Y-89307200D02*
X132770476Y-89259580D01*
X132770476Y-89259580D02*
X132722857Y-89164342D01*
X132722857Y-89164342D02*
X132675238Y-88973866D01*
X132675238Y-88973866D02*
X132675238Y-88735771D01*
X132675238Y-88735771D02*
X132722857Y-88545295D01*
X132722857Y-88545295D02*
X132770476Y-88450057D01*
X132770476Y-88450057D02*
X132818095Y-88402438D01*
X132818095Y-88402438D02*
X132913333Y-88354819D01*
X133865714Y-88354819D02*
X133960952Y-88354819D01*
X133960952Y-88354819D02*
X134056190Y-88402438D01*
X134056190Y-88402438D02*
X134103809Y-88450057D01*
X134103809Y-88450057D02*
X134151428Y-88545295D01*
X134151428Y-88545295D02*
X134199047Y-88735771D01*
X134199047Y-88735771D02*
X134199047Y-88973866D01*
X134199047Y-88973866D02*
X134151428Y-89164342D01*
X134151428Y-89164342D02*
X134103809Y-89259580D01*
X134103809Y-89259580D02*
X134056190Y-89307200D01*
X134056190Y-89307200D02*
X133960952Y-89354819D01*
X133960952Y-89354819D02*
X133865714Y-89354819D01*
X133865714Y-89354819D02*
X133770476Y-89307200D01*
X133770476Y-89307200D02*
X133722857Y-89259580D01*
X133722857Y-89259580D02*
X133675238Y-89164342D01*
X133675238Y-89164342D02*
X133627619Y-88973866D01*
X133627619Y-88973866D02*
X133627619Y-88735771D01*
X133627619Y-88735771D02*
X133675238Y-88545295D01*
X133675238Y-88545295D02*
X133722857Y-88450057D01*
X133722857Y-88450057D02*
X133770476Y-88402438D01*
X133770476Y-88402438D02*
X133865714Y-88354819D01*
X143128095Y-86039819D02*
X143128095Y-86849342D01*
X143128095Y-86849342D02*
X143175714Y-86944580D01*
X143175714Y-86944580D02*
X143223333Y-86992200D01*
X143223333Y-86992200D02*
X143318571Y-87039819D01*
X143318571Y-87039819D02*
X143509047Y-87039819D01*
X143509047Y-87039819D02*
X143604285Y-86992200D01*
X143604285Y-86992200D02*
X143651904Y-86944580D01*
X143651904Y-86944580D02*
X143699523Y-86849342D01*
X143699523Y-86849342D02*
X143699523Y-86039819D01*
X144128095Y-86135057D02*
X144175714Y-86087438D01*
X144175714Y-86087438D02*
X144270952Y-86039819D01*
X144270952Y-86039819D02*
X144509047Y-86039819D01*
X144509047Y-86039819D02*
X144604285Y-86087438D01*
X144604285Y-86087438D02*
X144651904Y-86135057D01*
X144651904Y-86135057D02*
X144699523Y-86230295D01*
X144699523Y-86230295D02*
X144699523Y-86325533D01*
X144699523Y-86325533D02*
X144651904Y-86468390D01*
X144651904Y-86468390D02*
X144080476Y-87039819D01*
X144080476Y-87039819D02*
X144699523Y-87039819D01*
X142604285Y-93783152D02*
X142604285Y-94449819D01*
X142366190Y-93402200D02*
X142128095Y-94116485D01*
X142128095Y-94116485D02*
X142747142Y-94116485D01*
X143128095Y-94449819D02*
X143128095Y-93449819D01*
X143128095Y-93449819D02*
X143699523Y-94449819D01*
X143699523Y-94449819D02*
X143699523Y-93449819D01*
X144080476Y-93449819D02*
X144699523Y-93449819D01*
X144699523Y-93449819D02*
X144366190Y-93830771D01*
X144366190Y-93830771D02*
X144509047Y-93830771D01*
X144509047Y-93830771D02*
X144604285Y-93878390D01*
X144604285Y-93878390D02*
X144651904Y-93926009D01*
X144651904Y-93926009D02*
X144699523Y-94021247D01*
X144699523Y-94021247D02*
X144699523Y-94259342D01*
X144699523Y-94259342D02*
X144651904Y-94354580D01*
X144651904Y-94354580D02*
X144604285Y-94402200D01*
X144604285Y-94402200D02*
X144509047Y-94449819D01*
X144509047Y-94449819D02*
X144223333Y-94449819D01*
X144223333Y-94449819D02*
X144128095Y-94402200D01*
X144128095Y-94402200D02*
X144080476Y-94354580D01*
X145604285Y-93449819D02*
X145128095Y-93449819D01*
X145128095Y-93449819D02*
X145080476Y-93926009D01*
X145080476Y-93926009D02*
X145128095Y-93878390D01*
X145128095Y-93878390D02*
X145223333Y-93830771D01*
X145223333Y-93830771D02*
X145461428Y-93830771D01*
X145461428Y-93830771D02*
X145556666Y-93878390D01*
X145556666Y-93878390D02*
X145604285Y-93926009D01*
X145604285Y-93926009D02*
X145651904Y-94021247D01*
X145651904Y-94021247D02*
X145651904Y-94259342D01*
X145651904Y-94259342D02*
X145604285Y-94354580D01*
X145604285Y-94354580D02*
X145556666Y-94402200D01*
X145556666Y-94402200D02*
X145461428Y-94449819D01*
X145461428Y-94449819D02*
X145223333Y-94449819D01*
X145223333Y-94449819D02*
X145128095Y-94402200D01*
X145128095Y-94402200D02*
X145080476Y-94354580D01*
D12*
%TO.C,J2*%
X120590000Y-82490000D02*
X121920000Y-82490000D01*
X120590000Y-83820000D02*
X120590000Y-82490000D01*
X120590000Y-85090000D02*
X120590000Y-92770000D01*
X120590000Y-85090000D02*
X123250000Y-85090000D01*
X120590000Y-92770000D02*
X123250000Y-92770000D01*
X123250000Y-85090000D02*
X123250000Y-92770000D01*
%TO.C,R6*%
X153440000Y-81280000D02*
X154210000Y-81280000D01*
X154210000Y-79910000D02*
X154210000Y-82650000D01*
X154210000Y-82650000D02*
X160750000Y-82650000D01*
X160750000Y-79910000D02*
X154210000Y-79910000D01*
X160750000Y-82650000D02*
X160750000Y-79910000D01*
X161520000Y-81280000D02*
X160750000Y-81280000D01*
%TO.C,R7*%
X153440000Y-76200000D02*
X154210000Y-76200000D01*
X154210000Y-74830000D02*
X154210000Y-77570000D01*
X154210000Y-77570000D02*
X160750000Y-77570000D01*
X160750000Y-74830000D02*
X154210000Y-74830000D01*
X160750000Y-77570000D02*
X160750000Y-74830000D01*
X161520000Y-76200000D02*
X160750000Y-76200000D01*
%TO.C,Q1*%
X151820000Y-85830000D02*
X151820000Y-89430000D01*
X151828259Y-85818125D02*
G75*
G02*
X156120000Y-86810000I1841741J-1811875D01*
G01*
X156120000Y-88410000D02*
G75*
G02*
X151842316Y-89438445I-2450000J780000D01*
G01*
%TO.C,U1*%
X141240000Y-75620000D02*
X141240000Y-83360000D01*
X141240000Y-83360000D02*
X146540000Y-83360000D01*
X142890000Y-75620000D02*
X141240000Y-75620000D01*
X146540000Y-75620000D02*
X144890000Y-75620000D01*
X146540000Y-83360000D02*
X146540000Y-75620000D01*
X144890000Y-75620000D02*
G75*
G02*
X142890000Y-75620000I-1000000J0D01*
G01*
%TO.C,R2*%
X128040000Y-76200000D02*
X128810000Y-76200000D01*
X128810000Y-74830000D02*
X128810000Y-77570000D01*
X128810000Y-77570000D02*
X135350000Y-77570000D01*
X135350000Y-74830000D02*
X128810000Y-74830000D01*
X135350000Y-77570000D02*
X135350000Y-74830000D01*
X136120000Y-76200000D02*
X135350000Y-76200000D01*
%TO.C,J1*%
X161230000Y-85030000D02*
X162560000Y-85030000D01*
X161230000Y-86360000D02*
X161230000Y-85030000D01*
X161230000Y-87630000D02*
X161230000Y-95310000D01*
X161230000Y-87630000D02*
X163890000Y-87630000D01*
X161230000Y-95310000D02*
X163890000Y-95310000D01*
X163890000Y-87630000D02*
X163890000Y-95310000D01*
%TO.C,R4*%
X128040000Y-88900000D02*
X128810000Y-88900000D01*
X128810000Y-87530000D02*
X128810000Y-90270000D01*
X128810000Y-90270000D02*
X135350000Y-90270000D01*
X135350000Y-87530000D02*
X128810000Y-87530000D01*
X135350000Y-90270000D02*
X135350000Y-87530000D01*
X136120000Y-88900000D02*
X135350000Y-88900000D01*
%TO.C,U2*%
X141240000Y-87585000D02*
X141240000Y-95325000D01*
X141240000Y-95325000D02*
X146540000Y-95325000D01*
X142890000Y-87585000D02*
X141240000Y-87585000D01*
X146540000Y-87585000D02*
X144890000Y-87585000D01*
X146540000Y-95325000D02*
X146540000Y-87585000D01*
X144890000Y-87585000D02*
G75*
G02*
X142890000Y-87585000I-1000000J0D01*
G01*
%TD*%
M02*
